<?xml version="1.0" encoding="us-ascii" standalone="no"?><svg xmlns="http://www.w3.org/2000/svg" xmlns:xlink="http://www.w3.org/1999/xlink" contentStyleType="text/css" height="1141px" preserveAspectRatio="none" style="width:694px;height:1141px;background:#FFFFFF;" version="1.1" viewBox="0 0 694 1141" width="694px" zoomAndPan="magnify"><defs/><g><text fill="#000000" font-family="sans-serif" font-size="14" font-weight="bold" lengthAdjust="spacing" textLength="590" x="51.25" y="29.5332">&#1044;&#1080;&#1072;&#1075;&#1088;&#1072;&#1084;&#1084;&#1072; &#1087;&#1086;&#1089;&#1083;&#1077;&#1076;&#1086;&#1074;&#1072;&#1090;&#1077;&#1083;&#1100;&#1085;&#1086;&#1089;&#1090;&#1080; 2. &#1057;&#1087;&#1088;&#1072;&#1074;&#1086;&#1095;&#1085;&#1080;&#1082;&#1080;, &#1087;&#1088;&#1077;&#1087;&#1086;&#1076;&#1072;&#1074;&#1072;&#1090;&#1077;&#1083;&#1080; &#1080; &#1082;&#1072;&#1090;&#1072;&#1083;&#1086;&#1075; &#1082;&#1091;&#1088;&#1089;&#1086;&#1074;</text><rect fill="#FFFFFF" height="30.3516" style="stroke:#181818;stroke-width:1.0;" width="10" x="313" y="171.1797"/><rect fill="#FFFFFF" height="30.3516" style="stroke:#181818;stroke-width:1.0;" width="10" x="313" y="231.8828"/><rect fill="#FFFFFF" height="30.3516" style="stroke:#181818;stroke-width:1.0;" width="10" x="313" y="292.5859"/><rect fill="#FFFFFF" height="30.3516" style="stroke:#181818;stroke-width:1.0;" width="10" x="313" y="353.2891"/><rect fill="#FFFFFF" height="30.3516" style="stroke:#181818;stroke-width:1.0;" width="10" x="313" y="413.9922"/><rect fill="#FFFFFF" height="30.3516" style="stroke:#181818;stroke-width:1.0;" width="10" x="484" y="474.6953"/><rect fill="#FFFFFF" height="30.3516" style="stroke:#181818;stroke-width:1.0;" width="10" x="484" y="535.3984"/><rect fill="#FFFFFF" height="30.3516" style="stroke:#181818;stroke-width:1.0;" width="10" x="484" y="596.1016"/><rect fill="#FFFFFF" height="30.3516" style="stroke:#181818;stroke-width:1.0;" width="10" x="484" y="656.8047"/><rect fill="#FFFFFF" height="30.3516" style="stroke:#181818;stroke-width:1.0;" width="10" x="484" y="733.8594"/><rect fill="#FFFFFF" height="30.3516" style="stroke:#181818;stroke-width:1.0;" width="10" x="631.5" y="794.5625"/><rect fill="#FFFFFF" height="30.3516" style="stroke:#181818;stroke-width:1.0;" width="10" x="631.5" y="855.2656"/><rect fill="#FFFFFF" height="30.3516" style="stroke:#181818;stroke-width:1.0;" width="10" x="631.5" y="915.9688"/><rect fill="#FFFFFF" height="30.3516" style="stroke:#181818;stroke-width:1.0;" width="10" x="631.5" y="993.0234"/><line style="stroke:#181818;stroke-width:0.5;stroke-dasharray:5.0,5.0;" x1="59" x2="59" y1="138.8281" y2="1041.375"/><line style="stroke:#181818;stroke-width:0.5;stroke-dasharray:5.0,5.0;" x1="317.5" x2="317.5" y1="138.8281" y2="1041.375"/><line style="stroke:#181818;stroke-width:0.5;stroke-dasharray:5.0,5.0;" x1="488.5" x2="488.5" y1="138.8281" y2="1041.375"/><line style="stroke:#181818;stroke-width:0.5;stroke-dasharray:5.0,5.0;" x1="636.5" x2="636.5" y1="138.8281" y2="1041.375"/><text fill="#000000" font-family="sans-serif" font-size="14" lengthAdjust="spacing" textLength="42" x="35" y="118.1426">&#1060;&#1088;&#1086;&#1085;&#1090;</text><text fill="#000000" font-family="sans-serif" font-size="14" lengthAdjust="spacing" textLength="102" x="5" y="135.752">(&#1087;&#1086;&#1083;&#1100;&#1079;&#1086;&#1074;&#1072;&#1090;&#1077;&#1083;&#1100;)</text><ellipse cx="59" cy="52.1094" fill="#E2E2F0" rx="8" ry="8" style="stroke:#181818;stroke-width:0.5;"/><path d="M59,60.1094 L59,87.1094 M46,68.1094 L72,68.1094 M59,87.1094 L46,102.1094 M59,87.1094 L72,102.1094 " fill="none" style="stroke:#181818;stroke-width:0.5;"/><text fill="#000000" font-family="sans-serif" font-size="14" lengthAdjust="spacing" textLength="42" x="35" y="1054.9082">&#1060;&#1088;&#1086;&#1085;&#1090;</text><text fill="#000000" font-family="sans-serif" font-size="14" lengthAdjust="spacing" textLength="102" x="5" y="1072.5176">(&#1087;&#1086;&#1083;&#1100;&#1079;&#1086;&#1074;&#1072;&#1090;&#1077;&#1083;&#1100;)</text><ellipse cx="59" cy="1084.0938" fill="#E2E2F0" rx="8" ry="8" style="stroke:#181818;stroke-width:0.5;"/><path d="M59,1092.0938 L59,1119.0938 M46,1100.0938 L72,1100.0938 M59,1119.0938 L46,1134.0938 M59,1119.0938 L72,1134.0938 " fill="none" style="stroke:#181818;stroke-width:0.5;"/><rect fill="#E2E2F0" height="31.6094" rx="2.5" ry="2.5" style="stroke:#181818;stroke-width:0.5;" width="151" x="242.5" y="106.2188"/><text fill="#000000" font-family="sans-serif" font-size="14" lengthAdjust="spacing" textLength="137" x="249.5" y="127.752">&#1044;&#1086;&#1084;&#1077;&#1085; &#1089;&#1087;&#1088;&#1072;&#1074;&#1086;&#1095;&#1085;&#1080;&#1082;&#1086;&#1074;</text><rect fill="#E2E2F0" height="31.6094" rx="2.5" ry="2.5" style="stroke:#181818;stroke-width:0.5;" width="151" x="242.5" y="1040.375"/><text fill="#000000" font-family="sans-serif" font-size="14" lengthAdjust="spacing" textLength="137" x="249.5" y="1061.9082">&#1044;&#1086;&#1084;&#1077;&#1085; &#1089;&#1087;&#1088;&#1072;&#1074;&#1086;&#1095;&#1085;&#1080;&#1082;&#1086;&#1074;</text><rect fill="#E2E2F0" height="31.6094" rx="2.5" ry="2.5" style="stroke:#181818;stroke-width:0.5;" width="171" x="403.5" y="106.2188"/><text fill="#000000" font-family="sans-serif" font-size="14" lengthAdjust="spacing" textLength="157" x="410.5" y="127.752">&#1044;&#1086;&#1084;&#1077;&#1085; &#1087;&#1088;&#1077;&#1087;&#1086;&#1076;&#1072;&#1074;&#1072;&#1090;&#1077;&#1083;&#1077;&#1081;</text><rect fill="#E2E2F0" height="31.6094" rx="2.5" ry="2.5" style="stroke:#181818;stroke-width:0.5;" width="171" x="403.5" y="1040.375"/><text fill="#000000" font-family="sans-serif" font-size="14" lengthAdjust="spacing" textLength="157" x="410.5" y="1061.9082">&#1044;&#1086;&#1084;&#1077;&#1085; &#1087;&#1088;&#1077;&#1087;&#1086;&#1076;&#1072;&#1074;&#1072;&#1090;&#1077;&#1083;&#1077;&#1081;</text><rect fill="#E2E2F0" height="31.6094" rx="2.5" ry="2.5" style="stroke:#181818;stroke-width:0.5;" width="104" x="584.5" y="106.2188"/><text fill="#000000" font-family="sans-serif" font-size="14" lengthAdjust="spacing" textLength="90" x="591.5" y="127.752">&#1044;&#1086;&#1084;&#1077;&#1085; &#1082;&#1091;&#1088;&#1089;&#1086;&#1074;</text><rect fill="#E2E2F0" height="31.6094" rx="2.5" ry="2.5" style="stroke:#181818;stroke-width:0.5;" width="104" x="584.5" y="1040.375"/><text fill="#000000" font-family="sans-serif" font-size="14" lengthAdjust="spacing" textLength="90" x="591.5" y="1061.9082">&#1044;&#1086;&#1084;&#1077;&#1085; &#1082;&#1091;&#1088;&#1089;&#1086;&#1074;</text><rect fill="#FFFFFF" height="30.3516" style="stroke:#181818;stroke-width:1.0;" width="10" x="313" y="171.1797"/><rect fill="#FFFFFF" height="30.3516" style="stroke:#181818;stroke-width:1.0;" width="10" x="313" y="231.8828"/><rect fill="#FFFFFF" height="30.3516" style="stroke:#181818;stroke-width:1.0;" width="10" x="313" y="292.5859"/><rect fill="#FFFFFF" height="30.3516" style="stroke:#181818;stroke-width:1.0;" width="10" x="313" y="353.2891"/><rect fill="#FFFFFF" height="30.3516" style="stroke:#181818;stroke-width:1.0;" width="10" x="313" y="413.9922"/><rect fill="#FFFFFF" height="30.3516" style="stroke:#181818;stroke-width:1.0;" width="10" x="484" y="474.6953"/><rect fill="#FFFFFF" height="30.3516" style="stroke:#181818;stroke-width:1.0;" width="10" x="484" y="535.3984"/><rect fill="#FFFFFF" height="30.3516" style="stroke:#181818;stroke-width:1.0;" width="10" x="484" y="596.1016"/><rect fill="#FFFFFF" height="30.3516" style="stroke:#181818;stroke-width:1.0;" width="10" x="484" y="656.8047"/><rect fill="#FFFFFF" height="30.3516" style="stroke:#181818;stroke-width:1.0;" width="10" x="484" y="733.8594"/><rect fill="#FFFFFF" height="30.3516" style="stroke:#181818;stroke-width:1.0;" width="10" x="631.5" y="794.5625"/><rect fill="#FFFFFF" height="30.3516" style="stroke:#181818;stroke-width:1.0;" width="10" x="631.5" y="855.2656"/><rect fill="#FFFFFF" height="30.3516" style="stroke:#181818;stroke-width:1.0;" width="10" x="631.5" y="915.9688"/><rect fill="#FFFFFF" height="30.3516" style="stroke:#181818;stroke-width:1.0;" width="10" x="631.5" y="993.0234"/><polygon fill="#181818" points="301,167.1797,311,171.1797,301,175.1797,305,171.1797" style="stroke:#181818;stroke-width:1.0;"/><line style="stroke:#181818;stroke-width:1.0;" x1="59" x2="307" y1="171.1797" y2="171.1797"/><text fill="#000000" font-family="sans-serif" font-size="13" lengthAdjust="spacing" textLength="109" x="66" y="166.3232">1 : GET /api/cities/</text><polygon fill="#181818" points="70,197.5313,60,201.5313,70,205.5313,66,201.5313" style="stroke:#181818;stroke-width:1.0;"/><line style="stroke:#181818;stroke-width:1.0;stroke-dasharray:2.0,2.0;" x1="64" x2="317" y1="201.5313" y2="201.5313"/><text fill="#000000" font-family="sans-serif" font-size="13" lengthAdjust="spacing" textLength="150" x="76" y="196.6748">2 : JSON &#1089;&#1087;&#1080;&#1089;&#1086;&#1082; &#1075;&#1086;&#1088;&#1086;&#1076;&#1086;&#1074;</text><polygon fill="#181818" points="301,227.8828,311,231.8828,301,235.8828,305,231.8828" style="stroke:#181818;stroke-width:1.0;"/><line style="stroke:#181818;stroke-width:1.0;" x1="59" x2="307" y1="231.8828" y2="231.8828"/><text fill="#000000" font-family="sans-serif" font-size="13" lengthAdjust="spacing" textLength="152" x="66" y="227.0264">3 : GET /api/dance-styles/</text><polygon fill="#181818" points="70,258.2344,60,262.2344,70,266.2344,66,262.2344" style="stroke:#181818;stroke-width:1.0;"/><line style="stroke:#181818;stroke-width:1.0;stroke-dasharray:2.0,2.0;" x1="64" x2="317" y1="262.2344" y2="262.2344"/><text fill="#000000" font-family="sans-serif" font-size="13" lengthAdjust="spacing" textLength="230" x="76" y="257.3779">4 : JSON &#1089;&#1087;&#1080;&#1089;&#1086;&#1082; &#1090;&#1072;&#1085;&#1094;&#1077;&#1074;&#1072;&#1083;&#1100;&#1085;&#1099;&#1093; &#1089;&#1090;&#1080;&#1083;&#1077;&#1081;</text><polygon fill="#181818" points="301,288.5859,311,292.5859,301,296.5859,305,292.5859" style="stroke:#181818;stroke-width:1.0;"/><line style="stroke:#181818;stroke-width:1.0;" x1="59" x2="307" y1="292.5859" y2="292.5859"/><text fill="#000000" font-family="sans-serif" font-size="13" lengthAdjust="spacing" textLength="120" x="66" y="287.7295">5 : GET /api/studios/</text><polygon fill="#181818" points="70,318.9375,60,322.9375,70,326.9375,66,322.9375" style="stroke:#181818;stroke-width:1.0;"/><line style="stroke:#181818;stroke-width:1.0;stroke-dasharray:2.0,2.0;" x1="64" x2="317" y1="322.9375" y2="322.9375"/><text fill="#000000" font-family="sans-serif" font-size="13" lengthAdjust="spacing" textLength="143" x="76" y="318.0811">6 : JSON &#1089;&#1087;&#1080;&#1089;&#1086;&#1082; &#1089;&#1090;&#1091;&#1076;&#1080;&#1081;</text><polygon fill="#181818" points="301,349.2891,311,353.2891,301,357.2891,305,353.2891" style="stroke:#181818;stroke-width:1.0;"/><line style="stroke:#181818;stroke-width:1.0;" x1="59" x2="307" y1="353.2891" y2="353.2891"/><text fill="#000000" font-family="sans-serif" font-size="13" lengthAdjust="spacing" textLength="142" x="66" y="348.4326">7 : GET /api/studios/{id}/</text><polygon fill="#181818" points="70,379.6406,60,383.6406,70,387.6406,66,383.6406" style="stroke:#181818;stroke-width:1.0;"/><line style="stroke:#181818;stroke-width:1.0;stroke-dasharray:2.0,2.0;" x1="64" x2="317" y1="383.6406" y2="383.6406"/><text fill="#000000" font-family="sans-serif" font-size="13" lengthAdjust="spacing" textLength="187" x="76" y="378.7842">8 : JSON &#1080;&#1085;&#1092;&#1086;&#1088;&#1084;&#1072;&#1094;&#1080;&#1103; &#1086; &#1089;&#1090;&#1091;&#1076;&#1080;&#1080;</text><polygon fill="#181818" points="301,409.9922,311,413.9922,301,417.9922,305,413.9922" style="stroke:#181818;stroke-width:1.0;"/><line style="stroke:#181818;stroke-width:1.0;" x1="59" x2="307" y1="413.9922" y2="413.9922"/><text fill="#000000" font-family="sans-serif" font-size="13" lengthAdjust="spacing" textLength="142" x="66" y="409.1357">9 : GET /api/map/points/</text><polygon fill="#181818" points="70,440.3438,60,444.3438,70,448.3438,66,444.3438" style="stroke:#181818;stroke-width:1.0;"/><line style="stroke:#181818;stroke-width:1.0;stroke-dasharray:2.0,2.0;" x1="64" x2="317" y1="444.3438" y2="444.3438"/><text fill="#000000" font-family="sans-serif" font-size="13" lengthAdjust="spacing" textLength="205" x="76" y="439.4873">10 : JSON &#1090;&#1086;&#1095;&#1082;&#1080; &#1089;&#1090;&#1091;&#1076;&#1080;&#1081; &#1076;&#1083;&#1103; &#1082;&#1072;&#1088;&#1090;&#1099;</text><polygon fill="#181818" points="472,470.6953,482,474.6953,472,478.6953,476,474.6953" style="stroke:#181818;stroke-width:1.0;"/><line style="stroke:#181818;stroke-width:1.0;" x1="59" x2="478" y1="474.6953" y2="474.6953"/><text fill="#000000" font-family="sans-serif" font-size="13" lengthAdjust="spacing" textLength="135" x="66" y="469.8389">11 : GET /api/teachers/</text><polygon fill="#181818" points="70,501.0469,60,505.0469,70,509.0469,66,505.0469" style="stroke:#181818;stroke-width:1.0;"/><line style="stroke:#181818;stroke-width:1.0;stroke-dasharray:2.0,2.0;" x1="64" x2="488" y1="505.0469" y2="505.0469"/><text fill="#000000" font-family="sans-serif" font-size="13" lengthAdjust="spacing" textLength="206" x="76" y="500.1904">12 : JSON &#1089;&#1087;&#1080;&#1089;&#1086;&#1082; &#1087;&#1088;&#1077;&#1087;&#1086;&#1076;&#1072;&#1074;&#1072;&#1090;&#1077;&#1083;&#1077;&#1081;</text><polygon fill="#181818" points="472,531.3984,482,535.3984,472,539.3984,476,535.3984" style="stroke:#181818;stroke-width:1.0;"/><line style="stroke:#181818;stroke-width:1.0;" x1="59" x2="478" y1="535.3984" y2="535.3984"/><text fill="#000000" font-family="sans-serif" font-size="13" lengthAdjust="spacing" textLength="157" x="66" y="530.542">13 : GET /api/teachers/{id}/</text><polygon fill="#181818" points="70,561.75,60,565.75,70,569.75,66,565.75" style="stroke:#181818;stroke-width:1.0;"/><line style="stroke:#181818;stroke-width:1.0;stroke-dasharray:2.0,2.0;" x1="64" x2="488" y1="565.75" y2="565.75"/><text fill="#000000" font-family="sans-serif" font-size="13" lengthAdjust="spacing" textLength="243" x="76" y="560.8936">14 : JSON &#1080;&#1085;&#1092;&#1086;&#1088;&#1084;&#1072;&#1094;&#1080;&#1103; &#1086; &#1087;&#1088;&#1077;&#1087;&#1086;&#1076;&#1072;&#1074;&#1072;&#1090;&#1077;&#1083;&#1077;</text><polygon fill="#181818" points="472,592.1016,482,596.1016,472,600.1016,476,596.1016" style="stroke:#181818;stroke-width:1.0;"/><line style="stroke:#181818;stroke-width:1.0;" x1="59" x2="478" y1="596.1016" y2="596.1016"/><text fill="#000000" font-family="sans-serif" font-size="13" lengthAdjust="spacing" textLength="207" x="66" y="591.2451">15 : GET /api/teachers/{id}/courses/</text><polygon fill="#181818" points="70,622.4531,60,626.4531,70,630.4531,66,626.4531" style="stroke:#181818;stroke-width:1.0;"/><line style="stroke:#181818;stroke-width:1.0;stroke-dasharray:2.0,2.0;" x1="64" x2="488" y1="626.4531" y2="626.4531"/><text fill="#000000" font-family="sans-serif" font-size="13" lengthAdjust="spacing" textLength="244" x="76" y="621.5967">16 : JSON &#1089;&#1087;&#1080;&#1089;&#1086;&#1082; &#1082;&#1091;&#1088;&#1089;&#1086;&#1074; &#1087;&#1088;&#1077;&#1087;&#1086;&#1076;&#1072;&#1074;&#1072;&#1090;&#1077;&#1083;&#1103;</text><polygon fill="#181818" points="472,652.8047,482,656.8047,472,660.8047,476,656.8047" style="stroke:#181818;stroke-width:1.0;"/><line style="stroke:#181818;stroke-width:1.0;" x1="59" x2="478" y1="656.8047" y2="656.8047"/><text fill="#000000" font-family="sans-serif" font-size="13" lengthAdjust="spacing" textLength="203" x="66" y="651.9482">17 : GET /api/teachers/{id}/reviews/</text><polygon fill="#181818" points="70,683.1563,60,687.1563,70,691.1563,66,687.1563" style="stroke:#181818;stroke-width:1.0;"/><line style="stroke:#181818;stroke-width:1.0;stroke-dasharray:2.0,2.0;" x1="64" x2="488" y1="687.1563" y2="687.1563"/><text fill="#000000" font-family="sans-serif" font-size="13" lengthAdjust="spacing" textLength="262" x="76" y="682.2998">18 : JSON &#1089;&#1087;&#1080;&#1089;&#1086;&#1082; &#1086;&#1090;&#1079;&#1099;&#1074;&#1086;&#1074; &#1086; &#1087;&#1088;&#1077;&#1087;&#1086;&#1076;&#1072;&#1074;&#1072;&#1090;&#1077;&#1083;&#1077;</text><polygon fill="#181818" points="472,729.8594,482,733.8594,472,737.8594,476,733.8594" style="stroke:#181818;stroke-width:1.0;"/><line style="stroke:#181818;stroke-width:1.0;" x1="59" x2="478" y1="733.8594" y2="733.8594"/><text fill="#000000" font-family="sans-serif" font-size="13" lengthAdjust="spacing" textLength="212" x="66" y="712.6514">19 : POST /api/teachers/{id}/reviews/</text><text fill="#000000" font-family="sans-serif" font-size="13" lengthAdjust="spacing" textLength="70" x="66" y="729.0029">(rating, text)</text><polygon fill="#181818" points="70,760.2109,60,764.2109,70,768.2109,66,764.2109" style="stroke:#181818;stroke-width:1.0;"/><line style="stroke:#181818;stroke-width:1.0;stroke-dasharray:2.0,2.0;" x1="64" x2="488" y1="764.2109" y2="764.2109"/><text fill="#000000" font-family="sans-serif" font-size="13" lengthAdjust="spacing" textLength="243" x="76" y="759.3545">20 : 201 Created, &#1086;&#1090;&#1079;&#1099;&#1074; &#1086; &#1087;&#1088;&#1077;&#1087;&#1086;&#1076;&#1072;&#1074;&#1072;&#1090;&#1077;&#1083;&#1077;</text><polygon fill="#181818" points="619.5,790.5625,629.5,794.5625,619.5,798.5625,623.5,794.5625" style="stroke:#181818;stroke-width:1.0;"/><line style="stroke:#181818;stroke-width:1.0;" x1="59" x2="625.5" y1="794.5625" y2="794.5625"/><text fill="#000000" font-family="sans-serif" font-size="13" lengthAdjust="spacing" textLength="131" x="66" y="789.7061">21 : GET /api/courses/</text><polygon fill="#181818" points="70,820.9141,60,824.9141,70,828.9141,66,824.9141" style="stroke:#181818;stroke-width:1.0;"/><line style="stroke:#181818;stroke-width:1.0;stroke-dasharray:2.0,2.0;" x1="64" x2="635.5" y1="824.9141" y2="824.9141"/><text fill="#000000" font-family="sans-serif" font-size="13" lengthAdjust="spacing" textLength="150" x="76" y="820.0576">22 : JSON &#1089;&#1087;&#1080;&#1089;&#1086;&#1082; &#1082;&#1091;&#1088;&#1089;&#1086;&#1074;</text><polygon fill="#181818" points="619.5,851.2656,629.5,855.2656,619.5,859.2656,623.5,855.2656" style="stroke:#181818;stroke-width:1.0;"/><line style="stroke:#181818;stroke-width:1.0;" x1="59" x2="625.5" y1="855.2656" y2="855.2656"/><text fill="#000000" font-family="sans-serif" font-size="13" lengthAdjust="spacing" textLength="153" x="66" y="850.4092">23 : GET /api/courses/{id}/</text><polygon fill="#181818" points="70,881.6172,60,885.6172,70,889.6172,66,885.6172" style="stroke:#181818;stroke-width:1.0;"/><line style="stroke:#181818;stroke-width:1.0;stroke-dasharray:2.0,2.0;" x1="64" x2="635.5" y1="885.6172" y2="885.6172"/><text fill="#000000" font-family="sans-serif" font-size="13" lengthAdjust="spacing" textLength="187" x="76" y="880.7607">24 : JSON &#1080;&#1085;&#1092;&#1086;&#1088;&#1084;&#1072;&#1094;&#1080;&#1103; &#1086; &#1082;&#1091;&#1088;&#1089;&#1077;</text><polygon fill="#181818" points="619.5,911.9688,629.5,915.9688,619.5,919.9688,623.5,915.9688" style="stroke:#181818;stroke-width:1.0;"/><line style="stroke:#181818;stroke-width:1.0;" x1="59" x2="625.5" y1="915.9688" y2="915.9688"/><text fill="#000000" font-family="sans-serif" font-size="13" lengthAdjust="spacing" textLength="199" x="66" y="911.1123">25 : GET /api/courses/{id}/reviews/</text><polygon fill="#181818" points="70,942.3203,60,946.3203,70,950.3203,66,946.3203" style="stroke:#181818;stroke-width:1.0;"/><line style="stroke:#181818;stroke-width:1.0;stroke-dasharray:2.0,2.0;" x1="64" x2="635.5" y1="946.3203" y2="946.3203"/><text fill="#000000" font-family="sans-serif" font-size="13" lengthAdjust="spacing" textLength="206" x="76" y="941.4639">26 : JSON &#1089;&#1087;&#1080;&#1089;&#1086;&#1082; &#1086;&#1090;&#1079;&#1099;&#1074;&#1086;&#1074; &#1086; &#1082;&#1091;&#1088;&#1089;&#1077;</text><polygon fill="#181818" points="619.5,989.0234,629.5,993.0234,619.5,997.0234,623.5,993.0234" style="stroke:#181818;stroke-width:1.0;"/><line style="stroke:#181818;stroke-width:1.0;" x1="59" x2="625.5" y1="993.0234" y2="993.0234"/><text fill="#000000" font-family="sans-serif" font-size="13" lengthAdjust="spacing" textLength="208" x="66" y="971.8154">27 : POST /api/courses/{id}/reviews/</text><text fill="#000000" font-family="sans-serif" font-size="13" lengthAdjust="spacing" textLength="70" x="66" y="988.167">(rating, text)</text><polygon fill="#181818" points="70,1019.375,60,1023.375,70,1027.375,66,1023.375" style="stroke:#181818;stroke-width:1.0;"/><line style="stroke:#181818;stroke-width:1.0;stroke-dasharray:2.0,2.0;" x1="64" x2="635.5" y1="1023.375" y2="1023.375"/><text fill="#000000" font-family="sans-serif" font-size="13" lengthAdjust="spacing" textLength="187" x="76" y="1018.5186">28 : 201 Created, &#1086;&#1090;&#1079;&#1099;&#1074; &#1086; &#1082;&#1091;&#1088;&#1089;&#1077;</text><!--SRC=[jPRDRjf04CVlFCKgfqQ24204caClwOVKGrCrwIsNbTcsAoKsiZTfgweI9VquK2cNl42bFW22ehWGd5UOVQFEBYNn9mviAx1XlPxPttzsPcp1nH4ZS04-z64eEtY-ma-Vm3K4yXDCO0I_8801z6KN_q_aTvYg6HpvfBf1u0TSQxC1Nls6SpwCmIyIVNMalA1z_zOUhTHthCTz70SmnA4yanrS3XSg5AWb79UimK_q4C1KTW_jUzgHMlmo2hE-HgX77hkEBLvwp2sqgIkunTlK5kZX0c- -mXkd17qdCT6JDd_1NZ6NsHPxw1nJRcSwoTGqWj_QqG6ZrXlcUdb-GdArtQvpudfiRbQuaKDA3-9mP8TKy7Zow82KQPkNBIuuyyegQFoK2fOG4xSleS_R1NP85O-d-tlFT8Z0rrHZ0aECKqSBLNlIOfd-ysXhOTeMnQcI9zuV6J5lfJBhX9hAhnZZWKejbQgo9x-GMRREzib4IZqinHCdBUwOgDXELu6myWpZxfl1Dj9WF_3MHmFYvfmOuQRoiquHR1OOSb-U4mZ2yBu9_Fqm_35jbziEjuL9i2kRDz7kwXQ0NIeIQu8_4wL2jQOENk_TNK2qxjLgaHeLVwT3-B5E4NEGWCyeqWNzA0mVMooFlPRA7akT9GLivMLEjXO39VLi9TQivQwkABrwmwqzKvCyDz3KoDRaibFEtXfeQgPh2X3xKlRKirEf-a-RfMh- -Tx-GcNu9k1ImUtNHIBOEx6-gjBgfZvLoAxBqBfL38dyHm8ZptIrMlIndKY_w3j0r3g1NyrDlZ3dejUB16Oj3JDM_4knvfV-77kqCdGz4pfP4ql1Rz-r8imrD2BvdoeYE_sN4jNCIVvyBNy0]--></g></svg>