<?xml version="1.0" encoding="us-ascii" standalone="no"?><svg xmlns="http://www.w3.org/2000/svg" xmlns:xlink="http://www.w3.org/1999/xlink" contentStyleType="text/css" height="1365px" preserveAspectRatio="none" style="width:608px;height:1365px;background:#FFFFFF;" version="1.1" viewBox="0 0 608 1365" width="608px" zoomAndPan="magnify"><defs/><g><text fill="#000000" font-family="sans-serif" font-size="14" font-weight="bold" lengthAdjust="spacing" textLength="567" x="19.75" y="29.5332">&#1044;&#1080;&#1072;&#1075;&#1088;&#1072;&#1084;&#1084;&#1072; &#1087;&#1086;&#1089;&#1083;&#1077;&#1076;&#1086;&#1074;&#1072;&#1090;&#1077;&#1083;&#1100;&#1085;&#1086;&#1089;&#1090;&#1080; 1. &#1040;&#1091;&#1090;&#1077;&#1085;&#1090;&#1080;&#1092;&#1080;&#1082;&#1072;&#1094;&#1080;&#1103;, &#1087;&#1088;&#1086;&#1092;&#1080;&#1083;&#1100; &#1080; &#1088;&#1077;&#1082;&#1086;&#1084;&#1077;&#1085;&#1076;&#1072;&#1094;&#1080;&#1080;</text><rect fill="#FFFFFF" height="30.3516" style="stroke:#181818;stroke-width:1.0;" width="10" x="349" y="187.5313"/><rect fill="#FFFFFF" height="30.3516" style="stroke:#181818;stroke-width:1.0;" width="10" x="349" y="264.5859"/><rect fill="#FFFFFF" height="30.3516" style="stroke:#181818;stroke-width:1.0;" width="10" x="349" y="341.6406"/><rect fill="#FFFFFF" height="30.3516" style="stroke:#181818;stroke-width:1.0;" width="10" x="349" y="402.3438"/><rect fill="#FFFFFF" height="30.3516" style="stroke:#181818;stroke-width:1.0;" width="10" x="349" y="479.3984"/><rect fill="#FFFFFF" height="30.3516" style="stroke:#181818;stroke-width:1.0;" width="10" x="349" y="556.4531"/><rect fill="#FFFFFF" height="30.3516" style="stroke:#181818;stroke-width:1.0;" width="10" x="349" y="633.5078"/><rect fill="#FFFFFF" height="30.3516" style="stroke:#181818;stroke-width:1.0;" width="10" x="349" y="694.2109"/><rect fill="#FFFFFF" height="30.3516" style="stroke:#181818;stroke-width:1.0;" width="10" x="349" y="787.6172"/><rect fill="#FFFFFF" height="30.3516" style="stroke:#181818;stroke-width:1.0;" width="10" x="349" y="848.3203"/><rect fill="#FFFFFF" height="30.3516" style="stroke:#181818;stroke-width:1.0;" width="10" x="349" y="925.375"/><rect fill="#FFFFFF" height="30.3516" style="stroke:#181818;stroke-width:1.0;" width="10" x="349" y="1002.4297"/><rect fill="#FFFFFF" height="30.3516" style="stroke:#181818;stroke-width:1.0;" width="10" x="349" y="1140.1875"/><rect fill="#FFFFFF" height="30.3516" style="stroke:#181818;stroke-width:1.0;" width="10" x="349" y="1217.2422"/><rect fill="#FFFFFF" height="46.7031" style="stroke:#181818;stroke-width:1.0;" width="10" x="518.5" y="1063.1328"/><line style="stroke:#181818;stroke-width:0.5;stroke-dasharray:5.0,5.0;" x1="59" x2="59" y1="138.8281" y2="1265.5938"/><line style="stroke:#181818;stroke-width:0.5;stroke-dasharray:5.0,5.0;" x1="353.5" x2="353.5" y1="138.8281" y2="1265.5938"/><line style="stroke:#181818;stroke-width:0.5;stroke-dasharray:5.0,5.0;" x1="523.5" x2="523.5" y1="138.8281" y2="1265.5938"/><text fill="#000000" font-family="sans-serif" font-size="14" lengthAdjust="spacing" textLength="42" x="35" y="118.1426">&#1060;&#1088;&#1086;&#1085;&#1090;</text><text fill="#000000" font-family="sans-serif" font-size="14" lengthAdjust="spacing" textLength="102" x="5" y="135.752">(&#1087;&#1086;&#1083;&#1100;&#1079;&#1086;&#1074;&#1072;&#1090;&#1077;&#1083;&#1100;)</text><ellipse cx="59" cy="52.1094" fill="#E2E2F0" rx="8" ry="8" style="stroke:#181818;stroke-width:0.5;"/><path d="M59,60.1094 L59,87.1094 M46,68.1094 L72,68.1094 M59,87.1094 L46,102.1094 M59,87.1094 L72,102.1094 " fill="none" style="stroke:#181818;stroke-width:0.5;"/><text fill="#000000" font-family="sans-serif" font-size="14" lengthAdjust="spacing" textLength="42" x="35" y="1279.127">&#1060;&#1088;&#1086;&#1085;&#1090;</text><text fill="#000000" font-family="sans-serif" font-size="14" lengthAdjust="spacing" textLength="102" x="5" y="1296.7363">(&#1087;&#1086;&#1083;&#1100;&#1079;&#1086;&#1074;&#1072;&#1090;&#1077;&#1083;&#1100;)</text><ellipse cx="59" cy="1308.3125" fill="#E2E2F0" rx="8" ry="8" style="stroke:#181818;stroke-width:0.5;"/><path d="M59,1316.3125 L59,1343.3125 M46,1324.3125 L72,1324.3125 M59,1343.3125 L46,1358.3125 M59,1343.3125 L72,1358.3125 " fill="none" style="stroke:#181818;stroke-width:0.5;"/><rect fill="#E2E2F0" height="31.6094" rx="2.5" ry="2.5" style="stroke:#181818;stroke-width:0.5;" width="161" x="273.5" y="106.2188"/><text fill="#000000" font-family="sans-serif" font-size="14" lengthAdjust="spacing" textLength="147" x="280.5" y="127.752">&#1044;&#1086;&#1084;&#1077;&#1085; &#1087;&#1086;&#1083;&#1100;&#1079;&#1086;&#1074;&#1072;&#1090;&#1077;&#1083;&#1077;&#1081;</text><rect fill="#E2E2F0" height="31.6094" rx="2.5" ry="2.5" style="stroke:#181818;stroke-width:0.5;" width="161" x="273.5" y="1264.5938"/><text fill="#000000" font-family="sans-serif" font-size="14" lengthAdjust="spacing" textLength="147" x="280.5" y="1286.127">&#1044;&#1086;&#1084;&#1077;&#1085; &#1087;&#1086;&#1083;&#1100;&#1079;&#1086;&#1074;&#1072;&#1090;&#1077;&#1083;&#1077;&#1081;</text><rect fill="#E2E2F0" height="31.6094" rx="2.5" ry="2.5" style="stroke:#181818;stroke-width:0.5;" width="158" x="444.5" y="106.2188"/><text fill="#000000" font-family="sans-serif" font-size="14" lengthAdjust="spacing" textLength="144" x="451.5" y="127.752">&#1044;&#1086;&#1084;&#1077;&#1085; &#1088;&#1077;&#1082;&#1086;&#1084;&#1077;&#1085;&#1076;&#1072;&#1094;&#1080;&#1081;</text><rect fill="#E2E2F0" height="31.6094" rx="2.5" ry="2.5" style="stroke:#181818;stroke-width:0.5;" width="158" x="444.5" y="1264.5938"/><text fill="#000000" font-family="sans-serif" font-size="14" lengthAdjust="spacing" textLength="144" x="451.5" y="1286.127">&#1044;&#1086;&#1084;&#1077;&#1085; &#1088;&#1077;&#1082;&#1086;&#1084;&#1077;&#1085;&#1076;&#1072;&#1094;&#1080;&#1081;</text><rect fill="#FFFFFF" height="30.3516" style="stroke:#181818;stroke-width:1.0;" width="10" x="349" y="187.5313"/><rect fill="#FFFFFF" height="30.3516" style="stroke:#181818;stroke-width:1.0;" width="10" x="349" y="264.5859"/><rect fill="#FFFFFF" height="30.3516" style="stroke:#181818;stroke-width:1.0;" width="10" x="349" y="341.6406"/><rect fill="#FFFFFF" height="30.3516" style="stroke:#181818;stroke-width:1.0;" width="10" x="349" y="402.3438"/><rect fill="#FFFFFF" height="30.3516" style="stroke:#181818;stroke-width:1.0;" width="10" x="349" y="479.3984"/><rect fill="#FFFFFF" height="30.3516" style="stroke:#181818;stroke-width:1.0;" width="10" x="349" y="556.4531"/><rect fill="#FFFFFF" height="30.3516" style="stroke:#181818;stroke-width:1.0;" width="10" x="349" y="633.5078"/><rect fill="#FFFFFF" height="30.3516" style="stroke:#181818;stroke-width:1.0;" width="10" x="349" y="694.2109"/><rect fill="#FFFFFF" height="30.3516" style="stroke:#181818;stroke-width:1.0;" width="10" x="349" y="787.6172"/><rect fill="#FFFFFF" height="30.3516" style="stroke:#181818;stroke-width:1.0;" width="10" x="349" y="848.3203"/><rect fill="#FFFFFF" height="30.3516" style="stroke:#181818;stroke-width:1.0;" width="10" x="349" y="925.375"/><rect fill="#FFFFFF" height="30.3516" style="stroke:#181818;stroke-width:1.0;" width="10" x="349" y="1002.4297"/><rect fill="#FFFFFF" height="30.3516" style="stroke:#181818;stroke-width:1.0;" width="10" x="349" y="1140.1875"/><rect fill="#FFFFFF" height="30.3516" style="stroke:#181818;stroke-width:1.0;" width="10" x="349" y="1217.2422"/><rect fill="#FFFFFF" height="46.7031" style="stroke:#181818;stroke-width:1.0;" width="10" x="518.5" y="1063.1328"/><polygon fill="#181818" points="337,183.5313,347,187.5313,337,191.5313,341,187.5313" style="stroke:#181818;stroke-width:1.0;"/><line style="stroke:#181818;stroke-width:1.0;" x1="59" x2="343" y1="187.5313" y2="187.5313"/><text fill="#000000" font-family="sans-serif" font-size="13" lengthAdjust="spacing" textLength="159" x="66" y="166.3232">1 : POST /api/auth/register/</text><text fill="#000000" font-family="sans-serif" font-size="13" lengthAdjust="spacing" textLength="167" x="66" y="182.6748">(email, password, username)</text><polygon fill="#181818" points="70,213.8828,60,217.8828,70,221.8828,66,217.8828" style="stroke:#181818;stroke-width:1.0;"/><line style="stroke:#181818;stroke-width:1.0;stroke-dasharray:2.0,2.0;" x1="64" x2="353" y1="217.8828" y2="217.8828"/><text fill="#000000" font-family="sans-serif" font-size="13" lengthAdjust="spacing" textLength="227" x="76" y="213.0264">2 : 201 Created, &#1076;&#1072;&#1085;&#1085;&#1099;&#1077; &#1087;&#1086;&#1083;&#1100;&#1079;&#1086;&#1074;&#1072;&#1090;&#1077;&#1083;&#1103;</text><polygon fill="#181818" points="337,260.5859,347,264.5859,337,268.5859,341,264.5859" style="stroke:#181818;stroke-width:1.0;"/><line style="stroke:#181818;stroke-width:1.0;" x1="59" x2="343" y1="264.5859" y2="264.5859"/><text fill="#000000" font-family="sans-serif" font-size="13" lengthAdjust="spacing" textLength="143" x="66" y="243.3779">3 : POST /api/auth/login/</text><text fill="#000000" font-family="sans-serif" font-size="13" lengthAdjust="spacing" textLength="102" x="66" y="259.7295">(email, password)</text><polygon fill="#181818" points="70,290.9375,60,294.9375,70,298.9375,66,294.9375" style="stroke:#181818;stroke-width:1.0;"/><line style="stroke:#181818;stroke-width:1.0;stroke-dasharray:2.0,2.0;" x1="64" x2="353" y1="294.9375" y2="294.9375"/><text fill="#000000" font-family="sans-serif" font-size="13" lengthAdjust="spacing" textLength="186" x="76" y="290.0811">4 : 200 OK, JWT access/refresh</text><polygon fill="#181818" points="337,337.6406,347,341.6406,337,345.6406,341,341.6406" style="stroke:#181818;stroke-width:1.0;"/><line style="stroke:#181818;stroke-width:1.0;" x1="59" x2="343" y1="341.6406" y2="341.6406"/><text fill="#000000" font-family="sans-serif" font-size="13" lengthAdjust="spacing" textLength="155" x="66" y="320.4326">5 : POST /api/auth/refresh/</text><text fill="#000000" font-family="sans-serif" font-size="13" lengthAdjust="spacing" textLength="83" x="66" y="336.7842">(refresh token)</text><polygon fill="#181818" points="70,367.9922,60,371.9922,70,375.9922,66,371.9922" style="stroke:#181818;stroke-width:1.0;"/><line style="stroke:#181818;stroke-width:1.0;stroke-dasharray:2.0,2.0;" x1="64" x2="353" y1="371.9922" y2="371.9922"/><text fill="#000000" font-family="sans-serif" font-size="13" lengthAdjust="spacing" textLength="190" x="76" y="367.1357">6 : 200 OK, &#1085;&#1086;&#1074;&#1099;&#1081; access token</text><polygon fill="#181818" points="337,398.3438,347,402.3438,337,406.3438,341,402.3438" style="stroke:#181818;stroke-width:1.0;"/><line style="stroke:#181818;stroke-width:1.0;" x1="59" x2="343" y1="402.3438" y2="402.3438"/><text fill="#000000" font-family="sans-serif" font-size="13" lengthAdjust="spacing" textLength="96" x="66" y="397.4873">7 : GET /api/me/</text><polygon fill="#181818" points="70,428.6953,60,432.6953,70,436.6953,66,432.6953" style="stroke:#181818;stroke-width:1.0;"/><line style="stroke:#181818;stroke-width:1.0;stroke-dasharray:2.0,2.0;" x1="64" x2="353" y1="432.6953" y2="432.6953"/><text fill="#000000" font-family="sans-serif" font-size="13" lengthAdjust="spacing" textLength="247" x="76" y="427.8389">8 : JSON &#1076;&#1072;&#1085;&#1085;&#1099;&#1077; &#1090;&#1077;&#1082;&#1091;&#1097;&#1077;&#1075;&#1086; &#1087;&#1086;&#1083;&#1100;&#1079;&#1086;&#1074;&#1072;&#1090;&#1077;&#1083;&#1103;</text><polygon fill="#181818" points="337,475.3984,347,479.3984,337,483.3984,341,479.3984" style="stroke:#181818;stroke-width:1.0;"/><line style="stroke:#181818;stroke-width:1.0;" x1="59" x2="343" y1="479.3984" y2="479.3984"/><text fill="#000000" font-family="sans-serif" font-size="13" lengthAdjust="spacing" textLength="113" x="66" y="458.1904">9 : PATCH /api/me/</text><text fill="#000000" font-family="sans-serif" font-size="13" lengthAdjust="spacing" textLength="206" x="66" y="474.542">(JSON &#1080;&#1079;&#1084;&#1077;&#1085;&#1077;&#1085;&#1085;&#1099;&#1077; &#1087;&#1086;&#1083;&#1103; &#1087;&#1088;&#1086;&#1092;&#1080;&#1083;&#1103;)</text><polygon fill="#181818" points="70,505.75,60,509.75,70,513.75,66,509.75" style="stroke:#181818;stroke-width:1.0;"/><line style="stroke:#181818;stroke-width:1.0;stroke-dasharray:2.0,2.0;" x1="64" x2="353" y1="509.75" y2="509.75"/><text fill="#000000" font-family="sans-serif" font-size="13" lengthAdjust="spacing" textLength="198" x="76" y="504.8936">10 : JSON &#1086;&#1073;&#1085;&#1086;&#1074;&#1083;&#1077;&#1085;&#1085;&#1099;&#1081; &#1087;&#1088;&#1086;&#1092;&#1080;&#1083;&#1100;</text><polygon fill="#181818" points="337,552.4531,347,556.4531,337,560.4531,341,556.4531" style="stroke:#181818;stroke-width:1.0;"/><line style="stroke:#181818;stroke-width:1.0;" x1="59" x2="343" y1="556.4531" y2="556.4531"/><text fill="#000000" font-family="sans-serif" font-size="13" lengthAdjust="spacing" textLength="102" x="66" y="535.2451">11 : PUT /api/me/</text><text fill="#000000" font-family="sans-serif" font-size="13" lengthAdjust="spacing" textLength="194" x="66" y="551.5967">(JSON &#1087;&#1086;&#1083;&#1085;&#1099;&#1077; &#1076;&#1072;&#1085;&#1085;&#1099;&#1077; &#1087;&#1088;&#1086;&#1092;&#1080;&#1083;&#1103;)</text><polygon fill="#181818" points="70,582.8047,60,586.8047,70,590.8047,66,586.8047" style="stroke:#181818;stroke-width:1.0;"/><line style="stroke:#181818;stroke-width:1.0;stroke-dasharray:2.0,2.0;" x1="64" x2="353" y1="586.8047" y2="586.8047"/><text fill="#000000" font-family="sans-serif" font-size="13" lengthAdjust="spacing" textLength="266" x="76" y="581.9482">12 : JSON &#1087;&#1086;&#1083;&#1085;&#1086;&#1089;&#1090;&#1100;&#1102; &#1086;&#1073;&#1085;&#1086;&#1074;&#1083;&#1077;&#1085;&#1085;&#1099;&#1081; &#1087;&#1088;&#1086;&#1092;&#1080;&#1083;&#1100;</text><polygon fill="#181818" points="337,629.5078,347,633.5078,337,637.5078,341,633.5078" style="stroke:#181818;stroke-width:1.0;"/><line style="stroke:#181818;stroke-width:1.0;" x1="59" x2="343" y1="633.5078" y2="633.5078"/><text fill="#000000" font-family="sans-serif" font-size="13" lengthAdjust="spacing" textLength="224" x="66" y="612.2998">13 : POST /api/auth/change-password/</text><text fill="#000000" font-family="sans-serif" font-size="13" lengthAdjust="spacing" textLength="180" x="66" y="628.6514">(old_password, new_password)</text><polygon fill="#181818" points="70,659.8594,60,663.8594,70,667.8594,66,663.8594" style="stroke:#181818;stroke-width:1.0;"/><line style="stroke:#181818;stroke-width:1.0;stroke-dasharray:2.0,2.0;" x1="64" x2="353" y1="663.8594" y2="663.8594"/><text fill="#000000" font-family="sans-serif" font-size="13" lengthAdjust="spacing" textLength="174" x="76" y="659.0029">14 : 200 OK, &#1087;&#1072;&#1088;&#1086;&#1083;&#1100; &#1080;&#1079;&#1084;&#1077;&#1085;&#1077;&#1085;</text><polygon fill="#181818" points="337,690.2109,347,694.2109,337,698.2109,341,694.2109" style="stroke:#181818;stroke-width:1.0;"/><line style="stroke:#181818;stroke-width:1.0;" x1="59" x2="343" y1="694.2109" y2="694.2109"/><text fill="#000000" font-family="sans-serif" font-size="13" lengthAdjust="spacing" textLength="174" x="66" y="689.3545">15 : GET /api/me/preferences/</text><polygon fill="#181818" points="70,720.5625,60,724.5625,70,728.5625,66,724.5625" style="stroke:#181818;stroke-width:1.0;"/><line style="stroke:#181818;stroke-width:1.0;stroke-dasharray:2.0,2.0;" x1="64" x2="353" y1="724.5625" y2="724.5625"/><text fill="#000000" font-family="sans-serif" font-size="13" lengthAdjust="spacing" textLength="232" x="76" y="719.7061">16 : JSON &#1087;&#1088;&#1077;&#1076;&#1087;&#1086;&#1095;&#1090;&#1077;&#1085;&#1080;&#1103; &#1087;&#1086;&#1083;&#1100;&#1079;&#1086;&#1074;&#1072;&#1090;&#1077;&#1083;&#1103;</text><polygon fill="#181818" points="337,783.6172,347,787.6172,337,791.6172,341,787.6172" style="stroke:#181818;stroke-width:1.0;"/><line style="stroke:#181818;stroke-width:1.0;" x1="59" x2="343" y1="787.6172" y2="787.6172"/><text fill="#000000" font-family="sans-serif" font-size="13" lengthAdjust="spacing" textLength="191" x="66" y="750.0576">17 : PATCH /api/me/preferences/</text><text fill="#000000" font-family="sans-serif" font-size="13" lengthAdjust="spacing" textLength="152" x="66" y="766.4092">(city, level, preferred_time,</text><text fill="#000000" font-family="sans-serif" font-size="13" lengthAdjust="spacing" textLength="118" x="66" y="782.7607">price_from, price_to)</text><polygon fill="#181818" points="70,813.9688,60,817.9688,70,821.9688,66,817.9688" style="stroke:#181818;stroke-width:1.0;"/><line style="stroke:#181818;stroke-width:1.0;stroke-dasharray:2.0,2.0;" x1="64" x2="353" y1="817.9688" y2="817.9688"/><text fill="#000000" font-family="sans-serif" font-size="13" lengthAdjust="spacing" textLength="230" x="76" y="813.1123">18 : JSON &#1086;&#1073;&#1085;&#1086;&#1074;&#1083;&#1077;&#1085;&#1085;&#1099;&#1077; &#1087;&#1088;&#1077;&#1076;&#1087;&#1086;&#1095;&#1090;&#1077;&#1085;&#1080;&#1103;</text><polygon fill="#181818" points="337,844.3203,347,848.3203,337,852.3203,341,848.3203" style="stroke:#181818;stroke-width:1.0;"/><line style="stroke:#181818;stroke-width:1.0;" x1="59" x2="343" y1="848.3203" y2="848.3203"/><text fill="#000000" font-family="sans-serif" font-size="13" lengthAdjust="spacing" textLength="137" x="66" y="843.4639">19 : GET /api/me/skills/</text><polygon fill="#181818" points="70,874.6719,60,878.6719,70,882.6719,66,878.6719" style="stroke:#181818;stroke-width:1.0;"/><line style="stroke:#181818;stroke-width:1.0;stroke-dasharray:2.0,2.0;" x1="64" x2="353" y1="878.6719" y2="878.6719"/><text fill="#000000" font-family="sans-serif" font-size="13" lengthAdjust="spacing" textLength="159" x="76" y="873.8154">20 : JSON &#1089;&#1087;&#1080;&#1089;&#1086;&#1082; &#1085;&#1072;&#1074;&#1099;&#1082;&#1086;&#1074;</text><polygon fill="#181818" points="337,921.375,347,925.375,337,929.375,341,925.375" style="stroke:#181818;stroke-width:1.0;"/><line style="stroke:#181818;stroke-width:1.0;" x1="59" x2="343" y1="925.375" y2="925.375"/><text fill="#000000" font-family="sans-serif" font-size="13" lengthAdjust="spacing" textLength="136" x="66" y="904.167">21 : PUT /api/me/skills/</text><text fill="#000000" font-family="sans-serif" font-size="13" lengthAdjust="spacing" textLength="141" x="66" y="920.5186">(JSON &#1089;&#1087;&#1080;&#1089;&#1086;&#1082; &#1085;&#1072;&#1074;&#1099;&#1082;&#1086;&#1074;)</text><polygon fill="#181818" points="70,951.7266,60,955.7266,70,959.7266,66,955.7266" style="stroke:#181818;stroke-width:1.0;"/><line style="stroke:#181818;stroke-width:1.0;stroke-dasharray:2.0,2.0;" x1="64" x2="353" y1="955.7266" y2="955.7266"/><text fill="#000000" font-family="sans-serif" font-size="13" lengthAdjust="spacing" textLength="190" x="76" y="950.8701">22 : JSON &#1086;&#1073;&#1085;&#1086;&#1074;&#1083;&#1077;&#1085;&#1085;&#1099;&#1077; &#1085;&#1072;&#1074;&#1099;&#1082;&#1080;</text><polygon fill="#181818" points="337,998.4297,347,1002.4297,337,1006.4297,341,1002.4297" style="stroke:#181818;stroke-width:1.0;"/><line style="stroke:#181818;stroke-width:1.0;" x1="59" x2="343" y1="1002.4297" y2="1002.4297"/><text fill="#000000" font-family="sans-serif" font-size="13" lengthAdjust="spacing" textLength="154" x="66" y="981.2217">23 : PATCH /api/me/skills/</text><text fill="#000000" font-family="sans-serif" font-size="13" lengthAdjust="spacing" textLength="166" x="66" y="997.5732">(JSON &#1080;&#1079;&#1084;&#1077;&#1085;&#1077;&#1085;&#1085;&#1099;&#1077; &#1085;&#1072;&#1074;&#1099;&#1082;&#1080;)</text><polygon fill="#181818" points="70,1028.7813,60,1032.7813,70,1036.7813,66,1032.7813" style="stroke:#181818;stroke-width:1.0;"/><line style="stroke:#181818;stroke-width:1.0;stroke-dasharray:2.0,2.0;" x1="64" x2="353" y1="1032.7813" y2="1032.7813"/><text fill="#000000" font-family="sans-serif" font-size="13" lengthAdjust="spacing" textLength="248" x="76" y="1027.9248">24 : JSON &#1095;&#1072;&#1089;&#1090;&#1080;&#1095;&#1085;&#1086; &#1086;&#1073;&#1085;&#1086;&#1074;&#1083;&#1077;&#1085;&#1085;&#1099;&#1077; &#1085;&#1072;&#1074;&#1099;&#1082;&#1080;</text><polygon fill="#181818" points="506.5,1059.1328,516.5,1063.1328,506.5,1067.1328,510.5,1063.1328" style="stroke:#181818;stroke-width:1.0;"/><line style="stroke:#181818;stroke-width:1.0;" x1="59" x2="512.5" y1="1063.1328" y2="1063.1328"/><text fill="#000000" font-family="sans-serif" font-size="13" lengthAdjust="spacing" textLength="238" x="66" y="1058.2764">25 : GET /api/recommendations/courses/</text><polygon fill="#181818" points="70,1105.8359,60,1109.8359,70,1113.8359,66,1109.8359" style="stroke:#181818;stroke-width:1.0;"/><line style="stroke:#181818;stroke-width:1.0;stroke-dasharray:2.0,2.0;" x1="64" x2="522.5" y1="1109.8359" y2="1109.8359"/><text fill="#000000" font-family="sans-serif" font-size="13" lengthAdjust="spacing" textLength="267" x="76" y="1088.6279">26 : JSON &#1089;&#1087;&#1080;&#1089;&#1086;&#1082; &#1088;&#1077;&#1082;&#1086;&#1084;&#1077;&#1085;&#1076;&#1086;&#1074;&#1072;&#1085;&#1085;&#1099;&#1093; &#1082;&#1091;&#1088;&#1089;&#1086;&#1074;,</text><text fill="#000000" font-family="sans-serif" font-size="13" lengthAdjust="spacing" textLength="285" x="76" y="1104.9795">recommendation_score, recommendation_reason</text><polygon fill="#181818" points="337,1136.1875,347,1140.1875,337,1144.1875,341,1140.1875" style="stroke:#181818;stroke-width:1.0;"/><line style="stroke:#181818;stroke-width:1.0;" x1="59" x2="343" y1="1140.1875" y2="1140.1875"/><text fill="#000000" font-family="sans-serif" font-size="13" lengthAdjust="spacing" textLength="192" x="66" y="1135.3311">27 : GET /api/dashboard/student/</text><polygon fill="#181818" points="70,1166.5391,60,1170.5391,70,1174.5391,66,1170.5391" style="stroke:#181818;stroke-width:1.0;"/><line style="stroke:#181818;stroke-width:1.0;stroke-dasharray:2.0,2.0;" x1="64" x2="353" y1="1170.5391" y2="1170.5391"/><text fill="#000000" font-family="sans-serif" font-size="13" lengthAdjust="spacing" textLength="227" x="76" y="1165.6826">28 : JSON &#1076;&#1072;&#1085;&#1085;&#1099;&#1077; &#1076;&#1072;&#1096;&#1073;&#1086;&#1088;&#1076;&#1072; &#1091;&#1095;&#1077;&#1085;&#1080;&#1082;&#1072;</text><polygon fill="#181818" points="337,1213.2422,347,1217.2422,337,1221.2422,341,1217.2422" style="stroke:#181818;stroke-width:1.0;"/><line style="stroke:#181818;stroke-width:1.0;" x1="59" x2="343" y1="1217.2422" y2="1217.2422"/><text fill="#000000" font-family="sans-serif" font-size="13" lengthAdjust="spacing" textLength="158" x="66" y="1196.0342">29 : POST /api/auth/logout/</text><text fill="#000000" font-family="sans-serif" font-size="13" lengthAdjust="spacing" textLength="83" x="66" y="1212.3857">(refresh token)</text><polygon fill="#181818" points="70,1243.5938,60,1247.5938,70,1251.5938,66,1247.5938" style="stroke:#181818;stroke-width:1.0;"/><line style="stroke:#181818;stroke-width:1.0;stroke-dasharray:2.0,2.0;" x1="64" x2="353" y1="1247.5938" y2="1247.5938"/><text fill="#000000" font-family="sans-serif" font-size="13" lengthAdjust="spacing" textLength="178" x="76" y="1242.7373">30 : 200 OK, &#1074;&#1099;&#1093;&#1086;&#1076; &#1074;&#1099;&#1087;&#1086;&#1083;&#1085;&#1077;&#1085;</text><!--SRC=[jLVTJjim5BxlKrXS3IciJVddOjB4_iIaCOsYtI1LNc9eH1jNjWlQtTWVcuRMNV08Uu2kKAt06bx1UQCTE_r9qfG9qwboSHFxdE_pyNVEGNYYIf0ybLtPacVXE_Z-0vyMajSo28_abUp8Snd8jco5xs5-5Px8dde3lxh8le_aZ_23VjDJJyAFOEWIrdw6UTC2As0oq4zX9u8jyBi3Am9m0dl0jbuhkxaSTWHbQ4R-L5kKkHt_daAXVVvEOfYTGPYZ9upwOfiJbgjZ9Zp7gsDVW8NJWNcKlH_6XJQWzl97j8OzVwA92O0Z0w-8GsiruhjOUDJlMyeDSQ6v1t4VQ0tPC5vkRfLG7jUzF6w8IfwHFOyBmlB0by2ogeNgcFD3obmBDM2tZsjaLXsFTu05IO2E6vy3PoFFQwYeHi56wup0Dh2bi0E3NlXDTYQSJDZCkIJJqqsaviT9LUcUvsSmCk2ne7aKqEPp2ssyBY7iE8HpEBPTHdZ51EzYLX2qDOMuFqM2xXFV0EzI3A_IYcp3WL_qOKTMJK0lmtZwk8-vHlAt1xO2OsDhyqNo8kZ0NuA8lyBVCnbCzMQigfD-M5f_DeGD1nnXw8BzI5ATzALi9lD6qo08Tc58Df2_eZ1euKUkBbAPoOIRhRMyNHgdfbaCA2L5TrTQnI6jlfCe5uSduVV_o3H3u4u5-tjaRg1hHPvMtV8eS_dai7m7rTjnsGFPbguAKH69tnmZFeifBTL1yuGH7nHge2jxQHGKNItETV4yZigYAeHJrPIzF2QgE7u8XEE9jnQgaWEYCgz-nuXR5bwDM3j-dNaEAUyoMbClrLnGam2jtAYmpiJ3CEAyceeOt_UgLPDW5OU90RgRQy1p1C0lLQ9kwKIjAdtR168ndGxw40TPuGPt9iMz-A_J7tde6j6P7xjbAKBP6JpcreJMmZ0wnw0ItMN2hAVAqhHuPlLiodKYAR348fvtQ8FnH7R8RFqoRO-HNCgyWcEDfiuK4T7m4z8r-frUsmOL9m6MkKCPiL3gANH-d2QwZLithCL4t-5YNdb3CUHxBXekyOM90hFx4DrPVu4O1t0GC4T0zpZA6Ue_2gCxl9hPcDA6c4QVDr-8LwYs2XB4vbnFXzLvSeNw2m00]--></g></svg>