<?xml version="1.0" encoding="us-ascii" standalone="no"?><svg xmlns="http://www.w3.org/2000/svg" xmlns:xlink="http://www.w3.org/1999/xlink" contentStyleType="text/css" height="1283px" preserveAspectRatio="none" style="width:684px;height:1283px;background:#FFFFFF;" version="1.1" viewBox="0 0 684 1283" width="684px" zoomAndPan="magnify"><defs/><g><text fill="#000000" font-family="sans-serif" font-size="14" font-weight="bold" lengthAdjust="spacing" textLength="452" x="115.25" y="29.5332">&#1044;&#1080;&#1072;&#1075;&#1088;&#1072;&#1084;&#1084;&#1072; &#1087;&#1086;&#1089;&#1083;&#1077;&#1076;&#1086;&#1074;&#1072;&#1090;&#1077;&#1083;&#1100;&#1085;&#1086;&#1089;&#1090;&#1080; 4. &#1055;&#1088;&#1077;&#1087;&#1086;&#1076;&#1072;&#1074;&#1072;&#1090;&#1077;&#1083;&#1100;&#1089;&#1082;&#1080;&#1081; &#1088;&#1077;&#1078;&#1080;&#1084;</text><rect fill="#FFFFFF" height="30.3516" style="stroke:#181818;stroke-width:1.0;" width="10" x="350" y="171.1797"/><rect fill="#FFFFFF" height="30.3516" style="stroke:#181818;stroke-width:1.0;" width="10" x="350" y="231.8828"/><rect fill="#FFFFFF" height="30.3516" style="stroke:#181818;stroke-width:1.0;" width="10" x="497.5" y="308.9375"/><rect fill="#FFFFFF" height="30.3516" style="stroke:#181818;stroke-width:1.0;" width="10" x="497.5" y="385.9922"/><rect fill="#FFFFFF" height="30.3516" style="stroke:#181818;stroke-width:1.0;" width="10" x="497.5" y="463.0469"/><rect fill="#FFFFFF" height="30.3516" style="stroke:#181818;stroke-width:1.0;" width="10" x="497.5" y="523.75"/><rect fill="#FFFFFF" height="30.3516" style="stroke:#181818;stroke-width:1.0;" width="10" x="497.5" y="584.4531"/><rect fill="#FFFFFF" height="30.3516" style="stroke:#181818;stroke-width:1.0;" width="10" x="497.5" y="645.1563"/><rect fill="#FFFFFF" height="30.3516" style="stroke:#181818;stroke-width:1.0;" width="10" x="616.5" y="722.2109"/><rect fill="#FFFFFF" height="30.3516" style="stroke:#181818;stroke-width:1.0;" width="10" x="616.5" y="799.2656"/><rect fill="#FFFFFF" height="30.3516" style="stroke:#181818;stroke-width:1.0;" width="10" x="616.5" y="876.3203"/><rect fill="#FFFFFF" height="30.3516" style="stroke:#181818;stroke-width:1.0;" width="10" x="616.5" y="937.0234"/><rect fill="#FFFFFF" height="30.3516" style="stroke:#181818;stroke-width:1.0;" width="10" x="616.5" y="997.7266"/><rect fill="#FFFFFF" height="30.3516" style="stroke:#181818;stroke-width:1.0;" width="10" x="616.5" y="1058.4297"/><rect fill="#FFFFFF" height="30.3516" style="stroke:#181818;stroke-width:1.0;" width="10" x="616.5" y="1135.4844"/><line style="stroke:#181818;stroke-width:0.5;stroke-dasharray:5.0,5.0;" x1="64" x2="64" y1="138.8281" y2="1183.8359"/><line style="stroke:#181818;stroke-width:0.5;stroke-dasharray:5.0,5.0;" x1="354.5" x2="354.5" y1="138.8281" y2="1183.8359"/><line style="stroke:#181818;stroke-width:0.5;stroke-dasharray:5.0,5.0;" x1="502.5" x2="502.5" y1="138.8281" y2="1183.8359"/><line style="stroke:#181818;stroke-width:0.5;stroke-dasharray:5.0,5.0;" x1="621.5" x2="621.5" y1="138.8281" y2="1183.8359"/><text fill="#000000" font-family="sans-serif" font-size="14" lengthAdjust="spacing" textLength="42" x="40" y="118.1426">&#1060;&#1088;&#1086;&#1085;&#1090;</text><text fill="#000000" font-family="sans-serif" font-size="14" lengthAdjust="spacing" textLength="112" x="5" y="135.752">(&#1087;&#1088;&#1077;&#1087;&#1086;&#1076;&#1072;&#1074;&#1072;&#1090;&#1077;&#1083;&#1100;)</text><ellipse cx="64" cy="52.1094" fill="#E2E2F0" rx="8" ry="8" style="stroke:#181818;stroke-width:0.5;"/><path d="M64,60.1094 L64,87.1094 M51,68.1094 L77,68.1094 M64,87.1094 L51,102.1094 M64,87.1094 L77,102.1094 " fill="none" style="stroke:#181818;stroke-width:0.5;"/><text fill="#000000" font-family="sans-serif" font-size="14" lengthAdjust="spacing" textLength="42" x="40" y="1197.3691">&#1060;&#1088;&#1086;&#1085;&#1090;</text><text fill="#000000" font-family="sans-serif" font-size="14" lengthAdjust="spacing" textLength="112" x="5" y="1214.9785">(&#1087;&#1088;&#1077;&#1087;&#1086;&#1076;&#1072;&#1074;&#1072;&#1090;&#1077;&#1083;&#1100;)</text><ellipse cx="64" cy="1226.5547" fill="#E2E2F0" rx="8" ry="8" style="stroke:#181818;stroke-width:0.5;"/><path d="M64,1234.5547 L64,1261.5547 M51,1242.5547 L77,1242.5547 M64,1261.5547 L51,1276.5547 M64,1261.5547 L77,1276.5547 " fill="none" style="stroke:#181818;stroke-width:0.5;"/><rect fill="#E2E2F0" height="31.6094" rx="2.5" ry="2.5" style="stroke:#181818;stroke-width:0.5;" width="171" x="269.5" y="106.2188"/><text fill="#000000" font-family="sans-serif" font-size="14" lengthAdjust="spacing" textLength="157" x="276.5" y="127.752">&#1044;&#1086;&#1084;&#1077;&#1085; &#1087;&#1088;&#1077;&#1087;&#1086;&#1076;&#1072;&#1074;&#1072;&#1090;&#1077;&#1083;&#1077;&#1081;</text><rect fill="#E2E2F0" height="31.6094" rx="2.5" ry="2.5" style="stroke:#181818;stroke-width:0.5;" width="171" x="269.5" y="1182.8359"/><text fill="#000000" font-family="sans-serif" font-size="14" lengthAdjust="spacing" textLength="157" x="276.5" y="1204.3691">&#1044;&#1086;&#1084;&#1077;&#1085; &#1087;&#1088;&#1077;&#1087;&#1086;&#1076;&#1072;&#1074;&#1072;&#1090;&#1077;&#1083;&#1077;&#1081;</text><rect fill="#E2E2F0" height="31.6094" rx="2.5" ry="2.5" style="stroke:#181818;stroke-width:0.5;" width="104" x="450.5" y="106.2188"/><text fill="#000000" font-family="sans-serif" font-size="14" lengthAdjust="spacing" textLength="90" x="457.5" y="127.752">&#1044;&#1086;&#1084;&#1077;&#1085; &#1082;&#1091;&#1088;&#1089;&#1086;&#1074;</text><rect fill="#E2E2F0" height="31.6094" rx="2.5" ry="2.5" style="stroke:#181818;stroke-width:0.5;" width="104" x="450.5" y="1182.8359"/><text fill="#000000" font-family="sans-serif" font-size="14" lengthAdjust="spacing" textLength="90" x="457.5" y="1204.3691">&#1044;&#1086;&#1084;&#1077;&#1085; &#1082;&#1091;&#1088;&#1089;&#1086;&#1074;</text><rect fill="#E2E2F0" height="31.6094" rx="2.5" ry="2.5" style="stroke:#181818;stroke-width:0.5;" width="114" x="564.5" y="106.2188"/><text fill="#000000" font-family="sans-serif" font-size="14" lengthAdjust="spacing" textLength="100" x="571.5" y="127.752">&#1044;&#1086;&#1084;&#1077;&#1085; &#1079;&#1072;&#1085;&#1103;&#1090;&#1080;&#1081;</text><rect fill="#E2E2F0" height="31.6094" rx="2.5" ry="2.5" style="stroke:#181818;stroke-width:0.5;" width="114" x="564.5" y="1182.8359"/><text fill="#000000" font-family="sans-serif" font-size="14" lengthAdjust="spacing" textLength="100" x="571.5" y="1204.3691">&#1044;&#1086;&#1084;&#1077;&#1085; &#1079;&#1072;&#1085;&#1103;&#1090;&#1080;&#1081;</text><rect fill="#FFFFFF" height="30.3516" style="stroke:#181818;stroke-width:1.0;" width="10" x="350" y="171.1797"/><rect fill="#FFFFFF" height="30.3516" style="stroke:#181818;stroke-width:1.0;" width="10" x="350" y="231.8828"/><rect fill="#FFFFFF" height="30.3516" style="stroke:#181818;stroke-width:1.0;" width="10" x="497.5" y="308.9375"/><rect fill="#FFFFFF" height="30.3516" style="stroke:#181818;stroke-width:1.0;" width="10" x="497.5" y="385.9922"/><rect fill="#FFFFFF" height="30.3516" style="stroke:#181818;stroke-width:1.0;" width="10" x="497.5" y="463.0469"/><rect fill="#FFFFFF" height="30.3516" style="stroke:#181818;stroke-width:1.0;" width="10" x="497.5" y="523.75"/><rect fill="#FFFFFF" height="30.3516" style="stroke:#181818;stroke-width:1.0;" width="10" x="497.5" y="584.4531"/><rect fill="#FFFFFF" height="30.3516" style="stroke:#181818;stroke-width:1.0;" width="10" x="497.5" y="645.1563"/><rect fill="#FFFFFF" height="30.3516" style="stroke:#181818;stroke-width:1.0;" width="10" x="616.5" y="722.2109"/><rect fill="#FFFFFF" height="30.3516" style="stroke:#181818;stroke-width:1.0;" width="10" x="616.5" y="799.2656"/><rect fill="#FFFFFF" height="30.3516" style="stroke:#181818;stroke-width:1.0;" width="10" x="616.5" y="876.3203"/><rect fill="#FFFFFF" height="30.3516" style="stroke:#181818;stroke-width:1.0;" width="10" x="616.5" y="937.0234"/><rect fill="#FFFFFF" height="30.3516" style="stroke:#181818;stroke-width:1.0;" width="10" x="616.5" y="997.7266"/><rect fill="#FFFFFF" height="30.3516" style="stroke:#181818;stroke-width:1.0;" width="10" x="616.5" y="1058.4297"/><rect fill="#FFFFFF" height="30.3516" style="stroke:#181818;stroke-width:1.0;" width="10" x="616.5" y="1135.4844"/><polygon fill="#181818" points="338,167.1797,348,171.1797,338,175.1797,342,171.1797" style="stroke:#181818;stroke-width:1.0;"/><line style="stroke:#181818;stroke-width:1.0;" x1="64" x2="344" y1="171.1797" y2="171.1797"/><text fill="#000000" font-family="sans-serif" font-size="13" lengthAdjust="spacing" textLength="199" x="71" y="166.3232">1 : GET /api/my-teaching-courses/</text><polygon fill="#181818" points="75,197.5313,65,201.5313,75,205.5313,71,201.5313" style="stroke:#181818;stroke-width:1.0;"/><line style="stroke:#181818;stroke-width:1.0;stroke-dasharray:2.0,2.0;" x1="69" x2="354" y1="201.5313" y2="201.5313"/><text fill="#000000" font-family="sans-serif" font-size="13" lengthAdjust="spacing" textLength="237" x="81" y="196.6748">2 : JSON &#1089;&#1087;&#1080;&#1089;&#1086;&#1082; &#1082;&#1091;&#1088;&#1089;&#1086;&#1074; &#1087;&#1088;&#1077;&#1087;&#1086;&#1076;&#1072;&#1074;&#1072;&#1090;&#1077;&#1083;&#1103;</text><polygon fill="#181818" points="338,227.8828,348,231.8828,338,235.8828,342,231.8828" style="stroke:#181818;stroke-width:1.0;"/><line style="stroke:#181818;stroke-width:1.0;" x1="64" x2="344" y1="231.8828" y2="231.8828"/><text fill="#000000" font-family="sans-serif" font-size="13" lengthAdjust="spacing" textLength="185" x="71" y="227.0264">3 : GET /api/dashboard/teacher/</text><polygon fill="#181818" points="75,258.2344,65,262.2344,75,266.2344,71,262.2344" style="stroke:#181818;stroke-width:1.0;"/><line style="stroke:#181818;stroke-width:1.0;stroke-dasharray:2.0,2.0;" x1="69" x2="354" y1="262.2344" y2="262.2344"/><text fill="#000000" font-family="sans-serif" font-size="13" lengthAdjust="spacing" textLength="262" x="81" y="257.3779">4 : JSON &#1076;&#1072;&#1085;&#1085;&#1099;&#1077; &#1076;&#1072;&#1096;&#1073;&#1086;&#1088;&#1076;&#1072; &#1087;&#1088;&#1077;&#1087;&#1086;&#1076;&#1072;&#1074;&#1072;&#1090;&#1077;&#1083;&#1103;</text><polygon fill="#181818" points="485.5,304.9375,495.5,308.9375,485.5,312.9375,489.5,308.9375" style="stroke:#181818;stroke-width:1.0;"/><line style="stroke:#181818;stroke-width:1.0;" x1="64" x2="491.5" y1="308.9375" y2="308.9375"/><text fill="#000000" font-family="sans-serif" font-size="13" lengthAdjust="spacing" textLength="133" x="71" y="287.7295">5 : POST /api/courses/</text><text fill="#000000" font-family="sans-serif" font-size="13" lengthAdjust="spacing" textLength="129" x="71" y="304.0811">(JSON &#1076;&#1072;&#1085;&#1085;&#1099;&#1077; &#1082;&#1091;&#1088;&#1089;&#1072;)</text><polygon fill="#181818" points="75,335.2891,65,339.2891,75,343.2891,71,339.2891" style="stroke:#181818;stroke-width:1.0;"/><line style="stroke:#181818;stroke-width:1.0;stroke-dasharray:2.0,2.0;" x1="69" x2="501.5" y1="339.2891" y2="339.2891"/><text fill="#000000" font-family="sans-serif" font-size="13" lengthAdjust="spacing" textLength="165" x="81" y="334.4326">6 : 201 Created, &#1085;&#1086;&#1074;&#1099;&#1081; &#1082;&#1091;&#1088;&#1089;</text><polygon fill="#181818" points="485.5,381.9922,495.5,385.9922,485.5,389.9922,489.5,385.9922" style="stroke:#181818;stroke-width:1.0;"/><line style="stroke:#181818;stroke-width:1.0;" x1="64" x2="491.5" y1="385.9922" y2="385.9922"/><text fill="#000000" font-family="sans-serif" font-size="13" lengthAdjust="spacing" textLength="163" x="71" y="364.7842">7 : PATCH /api/courses/{id}/</text><text fill="#000000" font-family="sans-serif" font-size="13" lengthAdjust="spacing" textLength="151" x="71" y="381.1357">(JSON &#1080;&#1079;&#1084;&#1077;&#1085;&#1077;&#1085;&#1085;&#1099;&#1077; &#1087;&#1086;&#1083;&#1103;)</text><polygon fill="#181818" points="75,412.3438,65,416.3438,75,420.3438,71,416.3438" style="stroke:#181818;stroke-width:1.0;"/><line style="stroke:#181818;stroke-width:1.0;stroke-dasharray:2.0,2.0;" x1="69" x2="501.5" y1="416.3438" y2="416.3438"/><text fill="#000000" font-family="sans-serif" font-size="13" lengthAdjust="spacing" textLength="167" x="81" y="411.4873">8 : JSON &#1086;&#1073;&#1085;&#1086;&#1074;&#1083;&#1077;&#1085;&#1085;&#1099;&#1081; &#1082;&#1091;&#1088;&#1089;</text><polygon fill="#181818" points="485.5,459.0469,495.5,463.0469,485.5,467.0469,489.5,463.0469" style="stroke:#181818;stroke-width:1.0;"/><line style="stroke:#181818;stroke-width:1.0;" x1="64" x2="491.5" y1="463.0469" y2="463.0469"/><text fill="#000000" font-family="sans-serif" font-size="13" lengthAdjust="spacing" textLength="145" x="71" y="441.8389">9 : PUT /api/courses/{id}/</text><text fill="#000000" font-family="sans-serif" font-size="13" lengthAdjust="spacing" textLength="177" x="71" y="458.1904">(JSON &#1087;&#1086;&#1083;&#1085;&#1099;&#1077; &#1076;&#1072;&#1085;&#1085;&#1099;&#1077; &#1082;&#1091;&#1088;&#1089;&#1072;)</text><polygon fill="#181818" points="75,489.3984,65,493.3984,75,497.3984,71,493.3984" style="stroke:#181818;stroke-width:1.0;"/><line style="stroke:#181818;stroke-width:1.0;stroke-dasharray:2.0,2.0;" x1="69" x2="501.5" y1="493.3984" y2="493.3984"/><text fill="#000000" font-family="sans-serif" font-size="13" lengthAdjust="spacing" textLength="242" x="81" y="488.542">10 : JSON &#1087;&#1086;&#1083;&#1085;&#1086;&#1089;&#1090;&#1100;&#1102; &#1086;&#1073;&#1085;&#1086;&#1074;&#1083;&#1077;&#1085;&#1085;&#1099;&#1081; &#1082;&#1091;&#1088;&#1089;</text><polygon fill="#181818" points="485.5,519.75,495.5,523.75,485.5,527.75,489.5,523.75" style="stroke:#181818;stroke-width:1.0;"/><line style="stroke:#181818;stroke-width:1.0;" x1="64" x2="491.5" y1="523.75" y2="523.75"/><text fill="#000000" font-family="sans-serif" font-size="13" lengthAdjust="spacing" textLength="177" x="71" y="518.8936">11 : DELETE /api/courses/{id}/</text><polygon fill="#181818" points="75,550.1016,65,554.1016,75,558.1016,71,554.1016" style="stroke:#181818;stroke-width:1.0;"/><line style="stroke:#181818;stroke-width:1.0;stroke-dasharray:2.0,2.0;" x1="69" x2="501.5" y1="554.1016" y2="554.1016"/><text fill="#000000" font-family="sans-serif" font-size="13" lengthAdjust="spacing" textLength="198" x="81" y="549.2451">12 : 204 No Content, &#1082;&#1091;&#1088;&#1089; &#1091;&#1076;&#1072;&#1083;&#1077;&#1085;</text><polygon fill="#181818" points="485.5,580.4531,495.5,584.4531,485.5,588.4531,489.5,584.4531" style="stroke:#181818;stroke-width:1.0;"/><line style="stroke:#181818;stroke-width:1.0;" x1="64" x2="491.5" y1="584.4531" y2="584.4531"/><text fill="#000000" font-family="sans-serif" font-size="13" lengthAdjust="spacing" textLength="207" x="71" y="579.5967">13 : GET /api/courses/{id}/students/</text><polygon fill="#181818" points="75,610.8047,65,614.8047,75,618.8047,71,614.8047" style="stroke:#181818;stroke-width:1.0;"/><line style="stroke:#181818;stroke-width:1.0;stroke-dasharray:2.0,2.0;" x1="69" x2="501.5" y1="614.8047" y2="614.8047"/><text fill="#000000" font-family="sans-serif" font-size="13" lengthAdjust="spacing" textLength="207" x="81" y="609.9482">14 : JSON &#1089;&#1087;&#1080;&#1089;&#1086;&#1082; &#1089;&#1090;&#1091;&#1076;&#1077;&#1085;&#1090;&#1086;&#1074; &#1082;&#1091;&#1088;&#1089;&#1072;</text><polygon fill="#181818" points="485.5,641.1563,495.5,645.1563,485.5,649.1563,489.5,645.1563" style="stroke:#181818;stroke-width:1.0;"/><line style="stroke:#181818;stroke-width:1.0;" x1="64" x2="491.5" y1="645.1563" y2="645.1563"/><text fill="#000000" font-family="sans-serif" font-size="13" lengthAdjust="spacing" textLength="202" x="71" y="640.2998">15 : GET /api/courses/{id}/lessons/</text><polygon fill="#181818" points="75,671.5078,65,675.5078,75,679.5078,71,675.5078" style="stroke:#181818;stroke-width:1.0;"/><line style="stroke:#181818;stroke-width:1.0;stroke-dasharray:2.0,2.0;" x1="69" x2="501.5" y1="675.5078" y2="675.5078"/><text fill="#000000" font-family="sans-serif" font-size="13" lengthAdjust="spacing" textLength="193" x="81" y="670.6514">16 : JSON &#1089;&#1087;&#1080;&#1089;&#1086;&#1082; &#1079;&#1072;&#1085;&#1103;&#1090;&#1080;&#1081; &#1082;&#1091;&#1088;&#1089;&#1072;</text><polygon fill="#181818" points="604.5,718.2109,614.5,722.2109,604.5,726.2109,608.5,722.2109" style="stroke:#181818;stroke-width:1.0;"/><line style="stroke:#181818;stroke-width:1.0;" x1="64" x2="610.5" y1="722.2109" y2="722.2109"/><text fill="#000000" font-family="sans-serif" font-size="13" lengthAdjust="spacing" textLength="211" x="71" y="701.0029">17 : POST /api/courses/{id}/lessons/</text><text fill="#000000" font-family="sans-serif" font-size="13" lengthAdjust="spacing" textLength="141" x="71" y="717.3545">(JSON &#1076;&#1072;&#1085;&#1085;&#1099;&#1077; &#1079;&#1072;&#1085;&#1103;&#1090;&#1080;&#1103;)</text><polygon fill="#181818" points="75,748.5625,65,752.5625,75,756.5625,71,752.5625" style="stroke:#181818;stroke-width:1.0;"/><line style="stroke:#181818;stroke-width:1.0;stroke-dasharray:2.0,2.0;" x1="69" x2="620.5" y1="752.5625" y2="752.5625"/><text fill="#000000" font-family="sans-serif" font-size="13" lengthAdjust="spacing" textLength="189" x="81" y="747.7061">18 : 201 Created, &#1085;&#1086;&#1074;&#1086;&#1077; &#1079;&#1072;&#1085;&#1103;&#1090;&#1080;&#1077;</text><polygon fill="#181818" points="604.5,795.2656,614.5,799.2656,604.5,803.2656,608.5,799.2656" style="stroke:#181818;stroke-width:1.0;"/><line style="stroke:#181818;stroke-width:1.0;" x1="64" x2="610.5" y1="799.2656" y2="799.2656"/><text fill="#000000" font-family="sans-serif" font-size="13" lengthAdjust="spacing" textLength="169" x="71" y="778.0576">19 : PATCH /api/lessons/{id}/</text><text fill="#000000" font-family="sans-serif" font-size="13" lengthAdjust="spacing" textLength="151" x="71" y="794.4092">(JSON &#1080;&#1079;&#1084;&#1077;&#1085;&#1077;&#1085;&#1085;&#1099;&#1077; &#1087;&#1086;&#1083;&#1103;)</text><polygon fill="#181818" points="75,825.6172,65,829.6172,75,833.6172,71,829.6172" style="stroke:#181818;stroke-width:1.0;"/><line style="stroke:#181818;stroke-width:1.0;stroke-dasharray:2.0,2.0;" x1="69" x2="620.5" y1="829.6172" y2="829.6172"/><text fill="#000000" font-family="sans-serif" font-size="13" lengthAdjust="spacing" textLength="191" x="81" y="824.7607">20 : JSON &#1086;&#1073;&#1085;&#1086;&#1074;&#1083;&#1077;&#1085;&#1085;&#1086;&#1077; &#1079;&#1072;&#1085;&#1103;&#1090;&#1080;&#1077;</text><polygon fill="#181818" points="604.5,872.3203,614.5,876.3203,604.5,880.3203,608.5,876.3203" style="stroke:#181818;stroke-width:1.0;"/><line style="stroke:#181818;stroke-width:1.0;" x1="64" x2="610.5" y1="876.3203" y2="876.3203"/><text fill="#000000" font-family="sans-serif" font-size="13" lengthAdjust="spacing" textLength="151" x="71" y="855.1123">21 : PUT /api/lessons/{id}/</text><text fill="#000000" font-family="sans-serif" font-size="13" lengthAdjust="spacing" textLength="189" x="71" y="871.4639">(JSON &#1087;&#1086;&#1083;&#1085;&#1099;&#1077; &#1076;&#1072;&#1085;&#1085;&#1099;&#1077; &#1079;&#1072;&#1085;&#1103;&#1090;&#1080;&#1103;)</text><polygon fill="#181818" points="75,902.6719,65,906.6719,75,910.6719,71,906.6719" style="stroke:#181818;stroke-width:1.0;"/><line style="stroke:#181818;stroke-width:1.0;stroke-dasharray:2.0,2.0;" x1="69" x2="620.5" y1="906.6719" y2="906.6719"/><text fill="#000000" font-family="sans-serif" font-size="13" lengthAdjust="spacing" textLength="259" x="81" y="901.8154">22 : JSON &#1087;&#1086;&#1083;&#1085;&#1086;&#1089;&#1090;&#1100;&#1102; &#1086;&#1073;&#1085;&#1086;&#1074;&#1083;&#1077;&#1085;&#1085;&#1086;&#1077; &#1079;&#1072;&#1085;&#1103;&#1090;&#1080;&#1077;</text><polygon fill="#181818" points="604.5,933.0234,614.5,937.0234,604.5,941.0234,608.5,937.0234" style="stroke:#181818;stroke-width:1.0;"/><line style="stroke:#181818;stroke-width:1.0;" x1="64" x2="610.5" y1="937.0234" y2="937.0234"/><text fill="#000000" font-family="sans-serif" font-size="13" lengthAdjust="spacing" textLength="176" x="71" y="932.167">23 : DELETE /api/lessons/{id}/</text><polygon fill="#181818" points="75,963.375,65,967.375,75,971.375,71,967.375" style="stroke:#181818;stroke-width:1.0;"/><line style="stroke:#181818;stroke-width:1.0;stroke-dasharray:2.0,2.0;" x1="69" x2="620.5" y1="967.375" y2="967.375"/><text fill="#000000" font-family="sans-serif" font-size="13" lengthAdjust="spacing" textLength="224" x="81" y="962.5186">24 : 204 No Content, &#1079;&#1072;&#1085;&#1103;&#1090;&#1080;&#1077; &#1091;&#1076;&#1072;&#1083;&#1077;&#1085;&#1086;</text><polygon fill="#181818" points="604.5,993.7266,614.5,997.7266,604.5,1001.7266,608.5,997.7266" style="stroke:#181818;stroke-width:1.0;"/><line style="stroke:#181818;stroke-width:1.0;" x1="64" x2="610.5" y1="997.7266" y2="997.7266"/><text fill="#000000" font-family="sans-serif" font-size="13" lengthAdjust="spacing" textLength="221" x="71" y="992.8701">25 : GET /api/courses/{id}/attendance/</text><polygon fill="#181818" points="75,1024.0781,65,1028.0781,75,1032.0781,71,1028.0781" style="stroke:#181818;stroke-width:1.0;"/><line style="stroke:#181818;stroke-width:1.0;stroke-dasharray:2.0,2.0;" x1="69" x2="620.5" y1="1028.0781" y2="1028.0781"/><text fill="#000000" font-family="sans-serif" font-size="13" lengthAdjust="spacing" textLength="209" x="81" y="1023.2217">26 : JSON &#1087;&#1086;&#1089;&#1077;&#1097;&#1072;&#1077;&#1084;&#1086;&#1089;&#1090;&#1100; &#1087;&#1086; &#1082;&#1091;&#1088;&#1089;&#1091;</text><polygon fill="#181818" points="604.5,1054.4297,614.5,1058.4297,604.5,1062.4297,608.5,1058.4297" style="stroke:#181818;stroke-width:1.0;"/><line style="stroke:#181818;stroke-width:1.0;" x1="64" x2="610.5" y1="1058.4297" y2="1058.4297"/><text fill="#000000" font-family="sans-serif" font-size="13" lengthAdjust="spacing" textLength="265" x="71" y="1053.5732">27 : GET /api/lessons/{lesson_id}/attendance/</text><polygon fill="#181818" points="75,1084.7813,65,1088.7813,75,1092.7813,71,1088.7813" style="stroke:#181818;stroke-width:1.0;"/><line style="stroke:#181818;stroke-width:1.0;stroke-dasharray:2.0,2.0;" x1="69" x2="620.5" y1="1088.7813" y2="1088.7813"/><text fill="#000000" font-family="sans-serif" font-size="13" lengthAdjust="spacing" textLength="224" x="81" y="1083.9248">28 : JSON &#1087;&#1086;&#1089;&#1077;&#1097;&#1072;&#1077;&#1084;&#1086;&#1089;&#1090;&#1100; &#1087;&#1086; &#1079;&#1072;&#1085;&#1103;&#1090;&#1080;&#1102;</text><polygon fill="#181818" points="604.5,1131.4844,614.5,1135.4844,604.5,1139.4844,608.5,1135.4844" style="stroke:#181818;stroke-width:1.0;"/><line style="stroke:#181818;stroke-width:1.0;" x1="64" x2="610.5" y1="1135.4844" y2="1135.4844"/><text fill="#000000" font-family="sans-serif" font-size="13" lengthAdjust="spacing" textLength="307" x="71" y="1114.2764">29 : POST /api/lessons/{lesson_id}/attendance/mark/</text><text fill="#000000" font-family="sans-serif" font-size="13" lengthAdjust="spacing" textLength="112" x="71" y="1130.6279">(student_id, status)</text><polygon fill="#181818" points="75,1161.8359,65,1165.8359,75,1169.8359,71,1165.8359" style="stroke:#181818;stroke-width:1.0;"/><line style="stroke:#181818;stroke-width:1.0;stroke-dasharray:2.0,2.0;" x1="69" x2="620.5" y1="1165.8359" y2="1165.8359"/><text fill="#000000" font-family="sans-serif" font-size="13" lengthAdjust="spacing" textLength="284" x="81" y="1160.9795">30 : JSON &#1086;&#1073;&#1085;&#1086;&#1074;&#1083;&#1077;&#1085;&#1085;&#1072;&#1103; &#1086;&#1090;&#1084;&#1077;&#1090;&#1082;&#1072; &#1087;&#1086;&#1089;&#1077;&#1097;&#1072;&#1077;&#1084;&#1086;&#1089;&#1090;&#1080;</text><!--SRC=[jPTBRzD04CVl-HIhdgYKa6Vpw049fG64gXQfuOQ4bjYY5eqTsHiaX912Soa2DPVUkV01JC6Gf7byXTrlnEpQSRp1RgXj5Atbn-xC_6Pc_wiGZPofY5xHCRNf3pQ0wmn-Dg9Bkc0VwGrrw4-weDVKPkTmVyE-q3d_0azZLBcFw5TOvF3PCCyEpeFLKp0xGMB2BxYTPJAuGmmJxT1ly791v-pyXNwFBgDCxEuWRA57fg6JjeexfwgPwM6JQ1sjXtK2PgvWpGpcpb6K4HWJOSKpO1qONQpfqNQcRCW643imYtLDeszQwjPbly7fd8ruMZo7Xwfb6VfgOIP8WN8FDk91-wW8ut6hZVAuf-MxxtA4Jz3qrxcE6q6U9qzxYucwoR9XAWVM9M_xg0JZwSdn4GAm9HqBlAd46fb0DieeQfJdxLJb89M2hTDN1ZQLF77d9M6gh9X4l7F8_cVgY0TsGRz3ZmxuVKfSKXU0upqOpuvFFAvLXQ2PGo9QPTdUNTFANILR3s6jyXeMYgXfgh1QoIA-2Uars9_uzeCuilcjD3LEyx3TV2BZlDUK3skcCVIuQ7OnF3QULaXbVBAwNyK554rGYKthUaY5hi7fdhTlOnCOWGvAjNZ5Wi_e-N4552JoyZzY5xcW7BGEM-rM27fycfBenGewCc2fJbITPFrm4HkAz0cK9B5BiY45Rf6-0Zwj10ILK3KK9U7XE_nSSZNHhtuIbhr8bZFtY4Y0KWqNTkaqYeSX7L_SLIrKyYIESFqB12CfXNn0olx2MElX8WX3TaAT8EQMO_Wlp8QiXIkqM5fuHy9I8LeCqwKi5OEQ6CuOhOaf5RHKkfCkffo1yeOwIac8prG9KqSfQ4aZwI89GxIoO0Ak5Qntr0GirM1zG3uSzWdYTg3plJg93xwyi64IbbgGnI-6U_CoDQJwFo85M_mo2LP3KiqjN5rilk4Rq3lZu7CMMGIJlXL_bvLl4nMRZU0rK8AOmNMw_kEtaHWwZap27m00]--></g></svg>