<?xml version="1.0" encoding="us-ascii" standalone="no"?><svg xmlns="http://www.w3.org/2000/svg" xmlns:xlink="http://www.w3.org/1999/xlink" contentStyleType="text/css" height="926px" preserveAspectRatio="none" style="width:738px;height:926px;background:#FFFFFF;" version="1.1" viewBox="0 0 738 926" width="738px" zoomAndPan="magnify"><defs/><g><text fill="#000000" font-family="sans-serif" font-size="14" font-weight="bold" lengthAdjust="spacing" textLength="537" x="99.5" y="29.5332">&#1044;&#1080;&#1072;&#1075;&#1088;&#1072;&#1084;&#1084;&#1072; &#1087;&#1086;&#1089;&#1083;&#1077;&#1076;&#1086;&#1074;&#1072;&#1090;&#1077;&#1083;&#1100;&#1085;&#1086;&#1089;&#1090;&#1080; 3. &#1048;&#1079;&#1073;&#1088;&#1072;&#1085;&#1085;&#1086;&#1077;, &#1079;&#1072;&#1087;&#1080;&#1089;&#1100; &#1085;&#1072; &#1082;&#1091;&#1088;&#1089; &#1080; &#1082;&#1072;&#1083;&#1077;&#1085;&#1076;&#1072;&#1088;&#1100;</text><rect fill="#FFFFFF" height="30.3516" style="stroke:#181818;stroke-width:1.0;" width="10" x="432" y="171.1797"/><rect fill="#FFFFFF" height="30.3516" style="stroke:#181818;stroke-width:1.0;" width="10" x="432" y="231.8828"/><rect fill="#FFFFFF" height="30.3516" style="stroke:#181818;stroke-width:1.0;" width="10" x="432" y="292.5859"/><rect fill="#FFFFFF" height="30.3516" style="stroke:#181818;stroke-width:1.0;" width="10" x="432" y="353.2891"/><rect fill="#FFFFFF" height="30.3516" style="stroke:#181818;stroke-width:1.0;" width="10" x="432" y="413.9922"/><rect fill="#FFFFFF" height="30.3516" style="stroke:#181818;stroke-width:1.0;" width="10" x="432" y="474.6953"/><rect fill="#FFFFFF" height="30.3516" style="stroke:#181818;stroke-width:1.0;" width="10" x="432" y="535.3984"/><rect fill="#FFFFFF" height="30.3516" style="stroke:#181818;stroke-width:1.0;" width="10" x="432" y="596.1016"/><rect fill="#FFFFFF" height="30.3516" style="stroke:#181818;stroke-width:1.0;" width="10" x="432" y="656.8047"/><rect fill="#FFFFFF" height="30.3516" style="stroke:#181818;stroke-width:1.0;" width="10" x="556" y="717.5078"/><rect fill="#FFFFFF" height="30.3516" style="stroke:#181818;stroke-width:1.0;" width="10" x="675" y="778.2109"/><line style="stroke:#181818;stroke-width:0.5;stroke-dasharray:5.0,5.0;" x1="59" x2="59" y1="138.8281" y2="826.5625"/><line style="stroke:#181818;stroke-width:0.5;stroke-dasharray:5.0,5.0;" x1="437" x2="437" y1="138.8281" y2="826.5625"/><line style="stroke:#181818;stroke-width:0.5;stroke-dasharray:5.0,5.0;" x1="561" x2="561" y1="138.8281" y2="826.5625"/><line style="stroke:#181818;stroke-width:0.5;stroke-dasharray:5.0,5.0;" x1="680" x2="680" y1="138.8281" y2="826.5625"/><text fill="#000000" font-family="sans-serif" font-size="14" lengthAdjust="spacing" textLength="42" x="35" y="118.1426">&#1060;&#1088;&#1086;&#1085;&#1090;</text><text fill="#000000" font-family="sans-serif" font-size="14" lengthAdjust="spacing" textLength="102" x="5" y="135.752">(&#1087;&#1086;&#1083;&#1100;&#1079;&#1086;&#1074;&#1072;&#1090;&#1077;&#1083;&#1100;)</text><ellipse cx="59" cy="52.1094" fill="#E2E2F0" rx="8" ry="8" style="stroke:#181818;stroke-width:0.5;"/><path d="M59,60.1094 L59,87.1094 M46,68.1094 L72,68.1094 M59,87.1094 L46,102.1094 M59,87.1094 L72,102.1094 " fill="none" style="stroke:#181818;stroke-width:0.5;"/><text fill="#000000" font-family="sans-serif" font-size="14" lengthAdjust="spacing" textLength="42" x="35" y="840.0957">&#1060;&#1088;&#1086;&#1085;&#1090;</text><text fill="#000000" font-family="sans-serif" font-size="14" lengthAdjust="spacing" textLength="102" x="5" y="857.7051">(&#1087;&#1086;&#1083;&#1100;&#1079;&#1086;&#1074;&#1072;&#1090;&#1077;&#1083;&#1100;)</text><ellipse cx="59" cy="869.2813" fill="#E2E2F0" rx="8" ry="8" style="stroke:#181818;stroke-width:0.5;"/><path d="M59,877.2813 L59,904.2813 M46,885.2813 L72,885.2813 M59,904.2813 L46,919.2813 M59,904.2813 L72,919.2813 " fill="none" style="stroke:#181818;stroke-width:0.5;"/><rect fill="#E2E2F0" height="31.6094" rx="2.5" ry="2.5" style="stroke:#181818;stroke-width:0.5;" width="114" x="380" y="106.2188"/><text fill="#000000" font-family="sans-serif" font-size="14" lengthAdjust="spacing" textLength="100" x="387" y="127.752">&#1044;&#1086;&#1084;&#1077;&#1085; &#1079;&#1072;&#1087;&#1080;&#1089;&#1077;&#1081;</text><rect fill="#E2E2F0" height="31.6094" rx="2.5" ry="2.5" style="stroke:#181818;stroke-width:0.5;" width="114" x="380" y="825.5625"/><text fill="#000000" font-family="sans-serif" font-size="14" lengthAdjust="spacing" textLength="100" x="387" y="847.0957">&#1044;&#1086;&#1084;&#1077;&#1085; &#1079;&#1072;&#1087;&#1080;&#1089;&#1077;&#1081;</text><rect fill="#E2E2F0" height="31.6094" rx="2.5" ry="2.5" style="stroke:#181818;stroke-width:0.5;" width="114" x="504" y="106.2188"/><text fill="#000000" font-family="sans-serif" font-size="14" lengthAdjust="spacing" textLength="100" x="511" y="127.752">&#1044;&#1086;&#1084;&#1077;&#1085; &#1079;&#1072;&#1085;&#1103;&#1090;&#1080;&#1081;</text><rect fill="#E2E2F0" height="31.6094" rx="2.5" ry="2.5" style="stroke:#181818;stroke-width:0.5;" width="114" x="504" y="825.5625"/><text fill="#000000" font-family="sans-serif" font-size="14" lengthAdjust="spacing" textLength="100" x="511" y="847.0957">&#1044;&#1086;&#1084;&#1077;&#1085; &#1079;&#1072;&#1085;&#1103;&#1090;&#1080;&#1081;</text><rect fill="#E2E2F0" height="31.6094" rx="2.5" ry="2.5" style="stroke:#181818;stroke-width:0.5;" width="104" x="628" y="106.2188"/><text fill="#000000" font-family="sans-serif" font-size="14" lengthAdjust="spacing" textLength="90" x="635" y="127.752">&#1044;&#1086;&#1084;&#1077;&#1085; &#1082;&#1091;&#1088;&#1089;&#1086;&#1074;</text><rect fill="#E2E2F0" height="31.6094" rx="2.5" ry="2.5" style="stroke:#181818;stroke-width:0.5;" width="104" x="628" y="825.5625"/><text fill="#000000" font-family="sans-serif" font-size="14" lengthAdjust="spacing" textLength="90" x="635" y="847.0957">&#1044;&#1086;&#1084;&#1077;&#1085; &#1082;&#1091;&#1088;&#1089;&#1086;&#1074;</text><rect fill="#FFFFFF" height="30.3516" style="stroke:#181818;stroke-width:1.0;" width="10" x="432" y="171.1797"/><rect fill="#FFFFFF" height="30.3516" style="stroke:#181818;stroke-width:1.0;" width="10" x="432" y="231.8828"/><rect fill="#FFFFFF" height="30.3516" style="stroke:#181818;stroke-width:1.0;" width="10" x="432" y="292.5859"/><rect fill="#FFFFFF" height="30.3516" style="stroke:#181818;stroke-width:1.0;" width="10" x="432" y="353.2891"/><rect fill="#FFFFFF" height="30.3516" style="stroke:#181818;stroke-width:1.0;" width="10" x="432" y="413.9922"/><rect fill="#FFFFFF" height="30.3516" style="stroke:#181818;stroke-width:1.0;" width="10" x="432" y="474.6953"/><rect fill="#FFFFFF" height="30.3516" style="stroke:#181818;stroke-width:1.0;" width="10" x="432" y="535.3984"/><rect fill="#FFFFFF" height="30.3516" style="stroke:#181818;stroke-width:1.0;" width="10" x="432" y="596.1016"/><rect fill="#FFFFFF" height="30.3516" style="stroke:#181818;stroke-width:1.0;" width="10" x="432" y="656.8047"/><rect fill="#FFFFFF" height="30.3516" style="stroke:#181818;stroke-width:1.0;" width="10" x="556" y="717.5078"/><rect fill="#FFFFFF" height="30.3516" style="stroke:#181818;stroke-width:1.0;" width="10" x="675" y="778.2109"/><polygon fill="#181818" points="420,167.1797,430,171.1797,420,175.1797,424,171.1797" style="stroke:#181818;stroke-width:1.0;"/><line style="stroke:#181818;stroke-width:1.0;" x1="59" x2="426" y1="171.1797" y2="171.1797"/><text fill="#000000" font-family="sans-serif" font-size="13" lengthAdjust="spacing" textLength="145" x="66" y="166.3232">1 : GET /api/enrollments/</text><polygon fill="#181818" points="70,197.5313,60,201.5313,70,205.5313,66,201.5313" style="stroke:#181818;stroke-width:1.0;"/><line style="stroke:#181818;stroke-width:1.0;stroke-dasharray:2.0,2.0;" x1="64" x2="436" y1="201.5313" y2="201.5313"/><text fill="#000000" font-family="sans-serif" font-size="13" lengthAdjust="spacing" textLength="235" x="76" y="196.6748">2 : JSON &#1089;&#1087;&#1080;&#1089;&#1086;&#1082; &#1079;&#1072;&#1087;&#1080;&#1089;&#1077;&#1081; &#1087;&#1086;&#1083;&#1100;&#1079;&#1086;&#1074;&#1072;&#1090;&#1077;&#1083;&#1103;</text><polygon fill="#181818" points="420,227.8828,430,231.8828,420,235.8828,424,231.8828" style="stroke:#181818;stroke-width:1.0;"/><line style="stroke:#181818;stroke-width:1.0;" x1="59" x2="426" y1="231.8828" y2="231.8828"/><text fill="#000000" font-family="sans-serif" font-size="13" lengthAdjust="spacing" textLength="125" x="66" y="227.0264">3 : GET /api/favorites/</text><polygon fill="#181818" points="70,258.2344,60,262.2344,70,266.2344,66,262.2344" style="stroke:#181818;stroke-width:1.0;"/><line style="stroke:#181818;stroke-width:1.0;stroke-dasharray:2.0,2.0;" x1="64" x2="436" y1="262.2344" y2="262.2344"/><text fill="#000000" font-family="sans-serif" font-size="13" lengthAdjust="spacing" textLength="211" x="76" y="257.3779">4 : JSON &#1089;&#1087;&#1080;&#1089;&#1086;&#1082; &#1080;&#1079;&#1073;&#1088;&#1072;&#1085;&#1085;&#1099;&#1093; &#1082;&#1091;&#1088;&#1089;&#1086;&#1074;</text><polygon fill="#181818" points="420,288.5859,430,292.5859,420,296.5859,424,292.5859" style="stroke:#181818;stroke-width:1.0;"/><line style="stroke:#181818;stroke-width:1.0;" x1="59" x2="426" y1="292.5859" y2="292.5859"/><text fill="#000000" font-family="sans-serif" font-size="13" lengthAdjust="spacing" textLength="245" x="66" y="287.7295">5 : POST /api/favorite-courses/{course_id}/</text><polygon fill="#181818" points="70,318.9375,60,322.9375,70,326.9375,66,322.9375" style="stroke:#181818;stroke-width:1.0;"/><line style="stroke:#181818;stroke-width:1.0;stroke-dasharray:2.0,2.0;" x1="64" x2="436" y1="322.9375" y2="322.9375"/><text fill="#000000" font-family="sans-serif" font-size="13" lengthAdjust="spacing" textLength="262" x="76" y="318.0811">6 : 201 Created, &#1082;&#1091;&#1088;&#1089; &#1076;&#1086;&#1073;&#1072;&#1074;&#1083;&#1077;&#1085; &#1074; &#1080;&#1079;&#1073;&#1088;&#1072;&#1085;&#1085;&#1086;&#1077;</text><polygon fill="#181818" points="420,349.2891,430,353.2891,420,357.2891,424,353.2891" style="stroke:#181818;stroke-width:1.0;"/><line style="stroke:#181818;stroke-width:1.0;" x1="59" x2="426" y1="353.2891" y2="353.2891"/><text fill="#000000" font-family="sans-serif" font-size="13" lengthAdjust="spacing" textLength="260" x="66" y="348.4326">7 : DELETE /api/favorite-courses/{course_id}/</text><polygon fill="#181818" points="70,379.6406,60,383.6406,70,387.6406,66,383.6406" style="stroke:#181818;stroke-width:1.0;"/><line style="stroke:#181818;stroke-width:1.0;stroke-dasharray:2.0,2.0;" x1="64" x2="436" y1="383.6406" y2="383.6406"/><text fill="#000000" font-family="sans-serif" font-size="13" lengthAdjust="spacing" textLength="279" x="76" y="378.7842">8 : 204 No Content, &#1082;&#1091;&#1088;&#1089; &#1091;&#1076;&#1072;&#1083;&#1077;&#1085; &#1080;&#1079; &#1080;&#1079;&#1073;&#1088;&#1072;&#1085;&#1085;&#1086;&#1075;&#1086;</text><polygon fill="#181818" points="420,409.9922,430,413.9922,420,417.9922,424,413.9922" style="stroke:#181818;stroke-width:1.0;"/><line style="stroke:#181818;stroke-width:1.0;" x1="59" x2="426" y1="413.9922" y2="413.9922"/><text fill="#000000" font-family="sans-serif" font-size="13" lengthAdjust="spacing" textLength="253" x="66" y="409.1357">9 : POST /api/favorite-teachers/{teacher_id}/</text><polygon fill="#181818" points="70,440.3438,60,444.3438,70,448.3438,66,444.3438" style="stroke:#181818;stroke-width:1.0;"/><line style="stroke:#181818;stroke-width:1.0;stroke-dasharray:2.0,2.0;" x1="64" x2="436" y1="444.3438" y2="444.3438"/><text fill="#000000" font-family="sans-serif" font-size="13" lengthAdjust="spacing" textLength="332" x="76" y="439.4873">10 : 201 Created, &#1087;&#1088;&#1077;&#1087;&#1086;&#1076;&#1072;&#1074;&#1072;&#1090;&#1077;&#1083;&#1100; &#1076;&#1086;&#1073;&#1072;&#1074;&#1083;&#1077;&#1085; &#1074; &#1080;&#1079;&#1073;&#1088;&#1072;&#1085;&#1085;&#1086;&#1077;</text><polygon fill="#181818" points="420,470.6953,430,474.6953,420,478.6953,424,474.6953" style="stroke:#181818;stroke-width:1.0;"/><line style="stroke:#181818;stroke-width:1.0;" x1="59" x2="426" y1="474.6953" y2="474.6953"/><text fill="#000000" font-family="sans-serif" font-size="13" lengthAdjust="spacing" textLength="275" x="66" y="469.8389">11 : DELETE /api/favorite-teachers/{teacher_id}/</text><polygon fill="#181818" points="70,501.0469,60,505.0469,70,509.0469,66,505.0469" style="stroke:#181818;stroke-width:1.0;"/><line style="stroke:#181818;stroke-width:1.0;stroke-dasharray:2.0,2.0;" x1="64" x2="436" y1="505.0469" y2="505.0469"/><text fill="#000000" font-family="sans-serif" font-size="13" lengthAdjust="spacing" textLength="349" x="76" y="500.1904">12 : 204 No Content, &#1087;&#1088;&#1077;&#1087;&#1086;&#1076;&#1072;&#1074;&#1072;&#1090;&#1077;&#1083;&#1100; &#1091;&#1076;&#1072;&#1083;&#1077;&#1085; &#1080;&#1079; &#1080;&#1079;&#1073;&#1088;&#1072;&#1085;&#1085;&#1086;&#1075;&#1086;</text><polygon fill="#181818" points="420,531.3984,430,535.3984,420,539.3984,424,535.3984" style="stroke:#181818;stroke-width:1.0;"/><line style="stroke:#181818;stroke-width:1.0;" x1="59" x2="426" y1="535.3984" y2="535.3984"/><text fill="#000000" font-family="sans-serif" font-size="13" lengthAdjust="spacing" textLength="243" x="66" y="530.542">13 : POST /api/courses/{course_id}/enroll/</text><polygon fill="#181818" points="70,561.75,60,565.75,70,569.75,66,565.75" style="stroke:#181818;stroke-width:1.0;"/><line style="stroke:#181818;stroke-width:1.0;stroke-dasharray:2.0,2.0;" x1="64" x2="436" y1="565.75" y2="565.75"/><text fill="#000000" font-family="sans-serif" font-size="13" lengthAdjust="spacing" textLength="194" x="76" y="560.8936">14 : 201 Created, &#1079;&#1072;&#1087;&#1080;&#1089;&#1100; &#1085;&#1072; &#1082;&#1091;&#1088;&#1089;</text><polygon fill="#181818" points="420,592.1016,430,596.1016,420,600.1016,424,596.1016" style="stroke:#181818;stroke-width:1.0;"/><line style="stroke:#181818;stroke-width:1.0;" x1="59" x2="426" y1="596.1016" y2="596.1016"/><text fill="#000000" font-family="sans-serif" font-size="13" lengthAdjust="spacing" textLength="258" x="66" y="591.2451">15 : DELETE /api/courses/{course_id}/enroll/</text><polygon fill="#181818" points="70,622.4531,60,626.4531,70,630.4531,66,626.4531" style="stroke:#181818;stroke-width:1.0;"/><line style="stroke:#181818;stroke-width:1.0;stroke-dasharray:2.0,2.0;" x1="64" x2="436" y1="626.4531" y2="626.4531"/><text fill="#000000" font-family="sans-serif" font-size="13" lengthAdjust="spacing" textLength="225" x="76" y="621.5967">16 : 204 No Content, &#1079;&#1072;&#1087;&#1080;&#1089;&#1100; &#1086;&#1090;&#1084;&#1077;&#1085;&#1077;&#1085;&#1072;</text><polygon fill="#181818" points="420,652.8047,430,656.8047,420,660.8047,424,656.8047" style="stroke:#181818;stroke-width:1.0;"/><line style="stroke:#181818;stroke-width:1.0;" x1="59" x2="426" y1="656.8047" y2="656.8047"/><text fill="#000000" font-family="sans-serif" font-size="13" lengthAdjust="spacing" textLength="153" x="66" y="651.9482">17 : GET /api/my-courses/</text><polygon fill="#181818" points="70,683.1563,60,687.1563,70,691.1563,66,687.1563" style="stroke:#181818;stroke-width:1.0;"/><line style="stroke:#181818;stroke-width:1.0;stroke-dasharray:2.0,2.0;" x1="64" x2="436" y1="687.1563" y2="687.1563"/><text fill="#000000" font-family="sans-serif" font-size="13" lengthAdjust="spacing" textLength="235" x="76" y="682.2998">18 : JSON &#1089;&#1087;&#1080;&#1089;&#1086;&#1082; &#1082;&#1091;&#1088;&#1089;&#1086;&#1074; &#1087;&#1086;&#1083;&#1100;&#1079;&#1086;&#1074;&#1072;&#1090;&#1077;&#1083;&#1103;</text><polygon fill="#181818" points="544,713.5078,554,717.5078,544,721.5078,548,717.5078" style="stroke:#181818;stroke-width:1.0;"/><line style="stroke:#181818;stroke-width:1.0;" x1="59" x2="550" y1="717.5078" y2="717.5078"/><text fill="#000000" font-family="sans-serif" font-size="13" lengthAdjust="spacing" textLength="134" x="66" y="712.6514">19 : GET /api/calendar/</text><polygon fill="#181818" points="70,743.8594,60,747.8594,70,751.8594,66,747.8594" style="stroke:#181818;stroke-width:1.0;"/><line style="stroke:#181818;stroke-width:1.0;stroke-dasharray:2.0,2.0;" x1="64" x2="560" y1="747.8594" y2="747.8594"/><text fill="#000000" font-family="sans-serif" font-size="13" lengthAdjust="spacing" textLength="262" x="76" y="743.0029">20 : JSON &#1082;&#1072;&#1083;&#1077;&#1085;&#1076;&#1072;&#1088;&#1100; &#1079;&#1072;&#1085;&#1103;&#1090;&#1080;&#1081; &#1087;&#1086;&#1083;&#1100;&#1079;&#1086;&#1074;&#1072;&#1090;&#1077;&#1083;&#1103;</text><polygon fill="#181818" points="663,774.2109,673,778.2109,663,782.2109,667,778.2109" style="stroke:#181818;stroke-width:1.0;"/><line style="stroke:#181818;stroke-width:1.0;" x1="59" x2="669" y1="778.2109" y2="778.2109"/><text fill="#000000" font-family="sans-serif" font-size="13" lengthAdjust="spacing" textLength="202" x="66" y="773.3545">21 : GET /api/courses/{id}/lessons/</text><polygon fill="#181818" points="70,804.5625,60,808.5625,70,812.5625,66,808.5625" style="stroke:#181818;stroke-width:1.0;"/><line style="stroke:#181818;stroke-width:1.0;stroke-dasharray:2.0,2.0;" x1="64" x2="679" y1="808.5625" y2="808.5625"/><text fill="#000000" font-family="sans-serif" font-size="13" lengthAdjust="spacing" textLength="193" x="76" y="803.7061">22 : JSON &#1089;&#1087;&#1080;&#1089;&#1086;&#1082; &#1079;&#1072;&#1085;&#1103;&#1090;&#1080;&#1081; &#1082;&#1091;&#1088;&#1089;&#1072;</text><!--SRC=[lPRTQjim5CVlynIYLniqIzoadnUxQRt1AEsWtTrWY4HZ1iSEibOOOz0FThL0Rtgn1zW3k6b3ixHsN-7eZNPa9wbaE-d0JGaAigrpZdxwIpf7EC9b12vW225SoMFylyDVIE0UOda2jp20QuYX3w4ynVwjx46alk3Ja3HU4VWDDt2P64Rg2moM2Ru9qNw8ete4NwAtaJoJn_A4e16CyAlo6w7d4D_sAXNQ4ZudI_077SKGoTEFtWirWoJUZHd_vHAX0Nd3VKzy21YlT2aNJilfKa-WXmiSVAUSQxF0nx-9aUrnttKxp1F1Zj-XZZVVE9Bd2dDilCk2mFSUDHoJgZadPjl-LnwmYLbbEczIVPsV3zaY5hQtzY6fqQvJOmy3QcgHd2CgM056tb4LtJ_4sY8hsDuTxEyHd5gwA36CCcj4PYpvUQNDvWH_dAcXCtscHpvt12jBr2mc6khxKVwIFmr9ofAiOdk_Vv11gRPIaMlVqyudf_sZ9DsQqgnkaMtEq4LxMJj2wZnU8by_FKK4-XbgTGhBWgvZsx5txKDxuQWR2MgJxFbuM3o18pLQUQPkYGafOkPPho0kIxjPBAj0hryOHzXnxmbehNfEsNk46IHdxpgHTNhLFPFMbZLBx8Kim4gHthFNu7bsWDKmja3HBayluxBqpPpyCxDbQQRLZAwBerehqjG0Yr7G94KcBIpDjgxdbCwtwRrK4cIZEAjeAUH9igHHJAYucpfEYxhCQrEkmPZLXscUo_Nr2KI-rifKDly5OyOsGOpoHiKswfVfXbCxpKtTQ51cRMIwoa7DgM0qd8bGnWOpFFy3]--></g></svg>